%TF.GenerationSoftware,KiCad,Pcbnew,(6.0.11)*%
%TF.CreationDate,2023-02-28T23:19:18-08:00*%
%TF.ProjectId,kiCad_LED_project,6b694361-645f-44c4-9544-5f70726f6a65,rev?*%
%TF.SameCoordinates,Original*%
%TF.FileFunction,Copper,L1,Top*%
%TF.FilePolarity,Positive*%
%FSLAX46Y46*%
G04 Gerber Fmt 4.6, Leading zero omitted, Abs format (unit mm)*
G04 Created by KiCad (PCBNEW (6.0.11)) date 2023-02-28 23:19:18*
%MOMM*%
%LPD*%
G01*
G04 APERTURE LIST*
G04 Aperture macros list*
%AMRoundRect*
0 Rectangle with rounded corners*
0 $1 Rounding radius*
0 $2 $3 $4 $5 $6 $7 $8 $9 X,Y pos of 4 corners*
0 Add a 4 corners polygon primitive as box body*
4,1,4,$2,$3,$4,$5,$6,$7,$8,$9,$2,$3,0*
0 Add four circle primitives for the rounded corners*
1,1,$1+$1,$2,$3*
1,1,$1+$1,$4,$5*
1,1,$1+$1,$6,$7*
1,1,$1+$1,$8,$9*
0 Add four rect primitives between the rounded corners*
20,1,$1+$1,$2,$3,$4,$5,0*
20,1,$1+$1,$4,$5,$6,$7,0*
20,1,$1+$1,$6,$7,$8,$9,0*
20,1,$1+$1,$8,$9,$2,$3,0*%
G04 Aperture macros list end*
%TA.AperFunction,ComponentPad*%
%ADD10R,2.390000X2.390000*%
%TD*%
%TA.AperFunction,ComponentPad*%
%ADD11C,2.390000*%
%TD*%
%TA.AperFunction,ComponentPad*%
%ADD12RoundRect,0.250001X-1.099999X1.099999X-1.099999X-1.099999X1.099999X-1.099999X1.099999X1.099999X0*%
%TD*%
%TA.AperFunction,ComponentPad*%
%ADD13C,2.700000*%
%TD*%
%TA.AperFunction,ComponentPad*%
%ADD14RoundRect,0.250000X-0.600000X-0.725000X0.600000X-0.725000X0.600000X0.725000X-0.600000X0.725000X0*%
%TD*%
%TA.AperFunction,ComponentPad*%
%ADD15O,1.700000X1.950000*%
%TD*%
%TA.AperFunction,ComponentPad*%
%ADD16R,1.600000X1.600000*%
%TD*%
%TA.AperFunction,ComponentPad*%
%ADD17O,1.600000X1.600000*%
%TD*%
%TA.AperFunction,Conductor*%
%ADD18C,0.250000*%
%TD*%
G04 APERTURE END LIST*
D10*
%TO.P,U1,1,+VIN*%
%TO.N,+BATT*%
X112767500Y-69105000D03*
D11*
%TO.P,U1,2*%
%TO.N,N/C*%
X107687500Y-69105000D03*
%TO.P,U1,3,PWMDIM*%
%TO.N,Net-(A1-Pad5)*%
X120387500Y-89425000D03*
%TO.P,U1,4,-VIN*%
%TO.N,GND*%
X110227500Y-89425000D03*
%TO.P,U1,5,-VOUT*%
%TO.N,Net-(J1-Pad2)*%
X100067500Y-89425000D03*
%TO.P,U1,6,+VOUT*%
%TO.N,Net-(J1-Pad1)*%
X100067500Y-69105000D03*
%TD*%
D12*
%TO.P,J3,1,Pin_1*%
%TO.N,+BATT*%
X64050000Y-57222500D03*
D13*
%TO.P,J3,2,Pin_2*%
%TO.N,GND*%
X64050000Y-61182500D03*
%TO.P,J3,3,Pin_3*%
%TO.N,unconnected-(J3-Pad3)*%
X64050000Y-65142500D03*
%TD*%
D10*
%TO.P,U4,1,+VIN*%
%TO.N,+BATT*%
X85817500Y-68580000D03*
D11*
%TO.P,U4,2*%
%TO.N,N/C*%
X80737500Y-68580000D03*
%TO.P,U4,3,PWMDIM*%
%TO.N,Net-(A1-Pad11)*%
X93437500Y-88900000D03*
%TO.P,U4,4,-VIN*%
%TO.N,GND*%
X83277500Y-88900000D03*
%TO.P,U4,5,-VOUT*%
%TO.N,Net-(J2-Pad4)*%
X73117500Y-88900000D03*
%TO.P,U4,6,+VOUT*%
%TO.N,Net-(J2-Pad3)*%
X73117500Y-68580000D03*
%TD*%
D14*
%TO.P,J2,1,Pin_1*%
%TO.N,Net-(J2-Pad1)*%
X97850000Y-45195000D03*
D15*
%TO.P,J2,2,Pin_2*%
%TO.N,Net-(J2-Pad2)*%
X100350000Y-45195000D03*
%TO.P,J2,3,Pin_3*%
%TO.N,Net-(J2-Pad3)*%
X102850000Y-45195000D03*
%TO.P,J2,4,Pin_4*%
%TO.N,Net-(J2-Pad4)*%
X105350000Y-45195000D03*
%TD*%
D10*
%TO.P,U2,1,+VIN*%
%TO.N,+BATT*%
X166650000Y-68580000D03*
D11*
%TO.P,U2,2*%
%TO.N,N/C*%
X161570000Y-68580000D03*
%TO.P,U2,3,PWMDIM*%
%TO.N,Net-(A1-Pad6)*%
X174270000Y-88900000D03*
%TO.P,U2,4,-VIN*%
%TO.N,GND*%
X164110000Y-88900000D03*
%TO.P,U2,5,-VOUT*%
%TO.N,Net-(J1-Pad4)*%
X153950000Y-88900000D03*
%TO.P,U2,6,+VOUT*%
%TO.N,Net-(J1-Pad3)*%
X153950000Y-68580000D03*
%TD*%
D12*
%TO.P,J4,1,Pin_1*%
%TO.N,GND*%
X63500000Y-95100000D03*
D13*
%TO.P,J4,2,Pin_2*%
%TO.N,Net-(A1-Pad24)*%
X63500000Y-99060000D03*
%TO.P,J4,3,Pin_3*%
%TO.N,Net-(A1-Pad23)*%
X63500000Y-103020000D03*
%TD*%
D14*
%TO.P,J1,1,Pin_1*%
%TO.N,Net-(J1-Pad1)*%
X130870000Y-45195000D03*
D15*
%TO.P,J1,2,Pin_2*%
%TO.N,Net-(J1-Pad2)*%
X133370000Y-45195000D03*
%TO.P,J1,3,Pin_3*%
%TO.N,Net-(J1-Pad3)*%
X135870000Y-45195000D03*
%TO.P,J1,4,Pin_4*%
%TO.N,Net-(J1-Pad4)*%
X138370000Y-45195000D03*
%TD*%
D10*
%TO.P,U3,1,+VIN*%
%TO.N,+BATT*%
X139700000Y-68580000D03*
D11*
%TO.P,U3,2*%
%TO.N,N/C*%
X134620000Y-68580000D03*
%TO.P,U3,3,PWMDIM*%
%TO.N,Net-(A1-Pad10)*%
X147320000Y-88900000D03*
%TO.P,U3,4,-VIN*%
%TO.N,GND*%
X137160000Y-88900000D03*
%TO.P,U3,5,-VOUT*%
%TO.N,Net-(J2-Pad2)*%
X127000000Y-88900000D03*
%TO.P,U3,6,+VOUT*%
%TO.N,Net-(J2-Pad1)*%
X127000000Y-68580000D03*
%TD*%
D16*
%TO.P,A1,1,D1/TX*%
%TO.N,unconnected-(A1-Pad1)*%
X166360000Y-111760000D03*
D17*
%TO.P,A1,2,D0/RX*%
%TO.N,unconnected-(A1-Pad2)*%
X163820000Y-111760000D03*
%TO.P,A1,3,~{RESET}*%
%TO.N,unconnected-(A1-Pad3)*%
X161280000Y-111760000D03*
%TO.P,A1,4,GND*%
%TO.N,GND*%
X158740000Y-111760000D03*
%TO.P,A1,5,D2*%
%TO.N,Net-(A1-Pad5)*%
X156200000Y-111760000D03*
%TO.P,A1,6,D3*%
%TO.N,Net-(A1-Pad6)*%
X153660000Y-111760000D03*
%TO.P,A1,7,D4*%
%TO.N,unconnected-(A1-Pad7)*%
X151120000Y-111760000D03*
%TO.P,A1,8,D5*%
%TO.N,unconnected-(A1-Pad8)*%
X148580000Y-111760000D03*
%TO.P,A1,9,D6*%
%TO.N,unconnected-(A1-Pad9)*%
X146040000Y-111760000D03*
%TO.P,A1,10,D7*%
%TO.N,Net-(A1-Pad10)*%
X143500000Y-111760000D03*
%TO.P,A1,11,D8*%
%TO.N,Net-(A1-Pad11)*%
X140960000Y-111760000D03*
%TO.P,A1,12,D9*%
%TO.N,unconnected-(A1-Pad12)*%
X138420000Y-111760000D03*
%TO.P,A1,13,D10*%
%TO.N,unconnected-(A1-Pad13)*%
X135880000Y-111760000D03*
%TO.P,A1,14,D11*%
%TO.N,unconnected-(A1-Pad14)*%
X133340000Y-111760000D03*
%TO.P,A1,15,D12*%
%TO.N,unconnected-(A1-Pad15)*%
X130800000Y-111760000D03*
%TO.P,A1,16,D13*%
%TO.N,unconnected-(A1-Pad16)*%
X130800000Y-127000000D03*
%TO.P,A1,17,3V3*%
%TO.N,unconnected-(A1-Pad17)*%
X133340000Y-127000000D03*
%TO.P,A1,18,AREF*%
%TO.N,unconnected-(A1-Pad18)*%
X135880000Y-127000000D03*
%TO.P,A1,19,A0*%
%TO.N,unconnected-(A1-Pad19)*%
X138420000Y-127000000D03*
%TO.P,A1,20,A1*%
%TO.N,unconnected-(A1-Pad20)*%
X140960000Y-127000000D03*
%TO.P,A1,21,A2*%
%TO.N,unconnected-(A1-Pad21)*%
X143500000Y-127000000D03*
%TO.P,A1,22,A3*%
%TO.N,unconnected-(A1-Pad22)*%
X146040000Y-127000000D03*
%TO.P,A1,23,A4*%
%TO.N,Net-(A1-Pad23)*%
X148580000Y-127000000D03*
%TO.P,A1,24,A5*%
%TO.N,Net-(A1-Pad24)*%
X151120000Y-127000000D03*
%TO.P,A1,25,A6*%
%TO.N,unconnected-(A1-Pad25)*%
X153660000Y-127000000D03*
%TO.P,A1,26,A7*%
%TO.N,unconnected-(A1-Pad26)*%
X156200000Y-127000000D03*
%TO.P,A1,27,+5V*%
%TO.N,unconnected-(A1-Pad27)*%
X158740000Y-127000000D03*
%TO.P,A1,28,~{RESET}*%
%TO.N,unconnected-(A1-Pad28)*%
X161280000Y-127000000D03*
%TO.P,A1,29,GND*%
%TO.N,GND*%
X163820000Y-127000000D03*
%TO.P,A1,30,VIN*%
%TO.N,+BATT*%
X166360000Y-127000000D03*
%TD*%
D18*
%TO.N,+BATT*%
X112767500Y-71645000D02*
X110227500Y-74185000D01*
X91422500Y-74185000D02*
X85817500Y-68580000D01*
X110227500Y-74185000D02*
X91422500Y-74185000D01*
X112767500Y-69105000D02*
X112767500Y-71645000D01*
X112767500Y-69105000D02*
X112767500Y-74185000D01*
X134095000Y-74185000D02*
X139700000Y-68580000D01*
X112767500Y-74185000D02*
X134095000Y-74185000D01*
%TO.N,GND*%
X62375000Y-62857500D02*
X62375000Y-67997500D01*
X163820000Y-116840000D02*
X158740000Y-111760000D01*
X138680000Y-87380000D02*
X137160000Y-88900000D01*
X62375000Y-67997500D02*
X83277500Y-88900000D01*
X67160000Y-91440000D02*
X63500000Y-95100000D01*
X64050000Y-61182500D02*
X62375000Y-62857500D01*
X158740000Y-94270000D02*
X164110000Y-88900000D01*
X164110000Y-88900000D02*
X162590000Y-87380000D01*
X158740000Y-111760000D02*
X158740000Y-94270000D01*
X108182500Y-87380000D02*
X110227500Y-89425000D01*
X112272500Y-87380000D02*
X135640000Y-87380000D01*
X162590000Y-87380000D02*
X138680000Y-87380000D01*
X83277500Y-88900000D02*
X80737500Y-91440000D01*
X163820000Y-127000000D02*
X163820000Y-116840000D01*
X110227500Y-89425000D02*
X112272500Y-87380000D01*
X135640000Y-87380000D02*
X137160000Y-88900000D01*
X80737500Y-91440000D02*
X67160000Y-91440000D01*
X83277500Y-88900000D02*
X84797500Y-87380000D01*
X84797500Y-87380000D02*
X108182500Y-87380000D01*
%TO.N,Net-(A1-Pad5)*%
X122402500Y-91440000D02*
X120387500Y-89425000D01*
X156200000Y-111760000D02*
X135880000Y-91440000D01*
X135880000Y-91440000D02*
X122402500Y-91440000D01*
%TO.N,Net-(A1-Pad11)*%
X93437500Y-88900000D02*
X101057500Y-96520000D01*
X125720000Y-96520000D02*
X140960000Y-111760000D01*
X101057500Y-96520000D02*
X125720000Y-96520000D01*
%TO.N,Net-(A1-Pad23)*%
X144449009Y-124460000D02*
X146040000Y-124460000D01*
X132080000Y-111449009D02*
X132080000Y-112090991D01*
X146040000Y-124460000D02*
X148580000Y-127000000D01*
X63500000Y-103020000D02*
X123650991Y-103020000D01*
X123650991Y-103020000D02*
X132080000Y-111449009D01*
X132080000Y-112090991D02*
X144449009Y-124460000D01*
%TO.N,Net-(A1-Pad24)*%
X63500000Y-99060000D02*
X124770991Y-99060000D01*
X124770991Y-99060000D02*
X137160000Y-111449009D01*
X137160000Y-111449009D02*
X137160000Y-113040000D01*
X137160000Y-113040000D02*
X151120000Y-127000000D01*
%TO.N,Net-(J1-Pad1)*%
X123452500Y-45720000D02*
X130345000Y-45720000D01*
X100067500Y-69105000D02*
X123452500Y-45720000D01*
X130345000Y-45720000D02*
X130870000Y-45195000D01*
%TO.N,Net-(J1-Pad3)*%
X153950000Y-68580000D02*
X153950000Y-63275000D01*
X153950000Y-63275000D02*
X135870000Y-45195000D01*
%TO.N,Net-(J2-Pad3)*%
X93437500Y-48260000D02*
X99785000Y-48260000D01*
X73117500Y-68580000D02*
X93437500Y-48260000D01*
X99785000Y-48260000D02*
X102850000Y-45195000D01*
%TO.N,+BATT*%
X161570000Y-73660000D02*
X166360000Y-78450000D01*
X64050000Y-57222500D02*
X66040000Y-59212500D01*
X75499360Y-73613052D02*
X66040000Y-64153692D01*
X80784448Y-73613052D02*
X75499360Y-73613052D01*
X165235000Y-125875000D02*
X166360000Y-127000000D01*
X166360000Y-78450000D02*
X166360000Y-109510000D01*
X161570000Y-73660000D02*
X144780000Y-73660000D01*
X85817500Y-68580000D02*
X80784448Y-73613052D01*
X66040000Y-59212500D02*
X66040000Y-64153692D01*
X144780000Y-73660000D02*
X139700000Y-68580000D01*
X166650000Y-68580000D02*
X161570000Y-73660000D01*
X166360000Y-109510000D02*
X165235000Y-110635000D01*
X165235000Y-110635000D02*
X165235000Y-125875000D01*
%TD*%
M02*
