%TF.GenerationSoftware,KiCad,Pcbnew,(6.0.11)*%
%TF.CreationDate,2023-02-28T23:19:18-08:00*%
%TF.ProjectId,kiCad_LED_project,6b694361-645f-44c4-9544-5f70726f6a65,rev?*%
%TF.SameCoordinates,Original*%
%TF.FileFunction,Legend,Top*%
%TF.FilePolarity,Positive*%
%FSLAX46Y46*%
G04 Gerber Fmt 4.6, Leading zero omitted, Abs format (unit mm)*
G04 Created by KiCad (PCBNEW (6.0.11)) date 2023-02-28 23:19:18*
%MOMM*%
%LPD*%
G01*
G04 APERTURE LIST*
G04 Aperture macros list*
%AMRoundRect*
0 Rectangle with rounded corners*
0 $1 Rounding radius*
0 $2 $3 $4 $5 $6 $7 $8 $9 X,Y pos of 4 corners*
0 Add a 4 corners polygon primitive as box body*
4,1,4,$2,$3,$4,$5,$6,$7,$8,$9,$2,$3,0*
0 Add four circle primitives for the rounded corners*
1,1,$1+$1,$2,$3*
1,1,$1+$1,$4,$5*
1,1,$1+$1,$6,$7*
1,1,$1+$1,$8,$9*
0 Add four rect primitives between the rounded corners*
20,1,$1+$1,$2,$3,$4,$5,0*
20,1,$1+$1,$4,$5,$6,$7,0*
20,1,$1+$1,$6,$7,$8,$9,0*
20,1,$1+$1,$8,$9,$2,$3,0*%
G04 Aperture macros list end*
%ADD10C,0.150000*%
%ADD11C,0.127000*%
%ADD12C,0.120000*%
%ADD13R,2.390000X2.390000*%
%ADD14C,2.390000*%
%ADD15RoundRect,0.250001X-1.099999X1.099999X-1.099999X-1.099999X1.099999X-1.099999X1.099999X1.099999X0*%
%ADD16C,2.700000*%
%ADD17C,1.200000*%
%ADD18RoundRect,0.250000X-0.600000X-0.725000X0.600000X-0.725000X0.600000X0.725000X-0.600000X0.725000X0*%
%ADD19O,1.700000X1.950000*%
%ADD20R,1.600000X1.600000*%
%ADD21O,1.600000X1.600000*%
G04 APERTURE END LIST*
D10*
X58452380Y-107132380D02*
X58452380Y-106465714D01*
X58452380Y-106132380D02*
X58404761Y-106180000D01*
X58452380Y-106227619D01*
X58500000Y-106180000D01*
X58452380Y-106132380D01*
X58452380Y-106227619D01*
X58880952Y-106227619D02*
X58928571Y-106180000D01*
X59023809Y-106132380D01*
X59261904Y-106132380D01*
X59357142Y-106180000D01*
X59404761Y-106227619D01*
X59452380Y-106322857D01*
X59452380Y-106418095D01*
X59404761Y-106560952D01*
X58833333Y-107132380D01*
X59452380Y-107132380D01*
X60309523Y-107084761D02*
X60214285Y-107132380D01*
X60023809Y-107132380D01*
X59928571Y-107084761D01*
X59880952Y-107037142D01*
X59833333Y-106941904D01*
X59833333Y-106656190D01*
X59880952Y-106560952D01*
X59928571Y-106513333D01*
X60023809Y-106465714D01*
X60214285Y-106465714D01*
X60309523Y-106513333D01*
X62071428Y-107037142D02*
X62023809Y-107084761D01*
X61880952Y-107132380D01*
X61785714Y-107132380D01*
X61642857Y-107084761D01*
X61547619Y-106989523D01*
X61500000Y-106894285D01*
X61452380Y-106703809D01*
X61452380Y-106560952D01*
X61500000Y-106370476D01*
X61547619Y-106275238D01*
X61642857Y-106180000D01*
X61785714Y-106132380D01*
X61880952Y-106132380D01*
X62023809Y-106180000D01*
X62071428Y-106227619D01*
X62642857Y-107132380D02*
X62547619Y-107084761D01*
X62500000Y-107037142D01*
X62452380Y-106941904D01*
X62452380Y-106656190D01*
X62500000Y-106560952D01*
X62547619Y-106513333D01*
X62642857Y-106465714D01*
X62785714Y-106465714D01*
X62880952Y-106513333D01*
X62928571Y-106560952D01*
X62976190Y-106656190D01*
X62976190Y-106941904D01*
X62928571Y-107037142D01*
X62880952Y-107084761D01*
X62785714Y-107132380D01*
X62642857Y-107132380D01*
X63404761Y-106465714D02*
X63404761Y-107132380D01*
X63404761Y-106560952D02*
X63452380Y-106513333D01*
X63547619Y-106465714D01*
X63690476Y-106465714D01*
X63785714Y-106513333D01*
X63833333Y-106608571D01*
X63833333Y-107132380D01*
X64309523Y-106465714D02*
X64309523Y-107132380D01*
X64309523Y-106560952D02*
X64357142Y-106513333D01*
X64452380Y-106465714D01*
X64595238Y-106465714D01*
X64690476Y-106513333D01*
X64738095Y-106608571D01*
X64738095Y-107132380D01*
X65595238Y-107084761D02*
X65500000Y-107132380D01*
X65309523Y-107132380D01*
X65214285Y-107084761D01*
X65166666Y-106989523D01*
X65166666Y-106608571D01*
X65214285Y-106513333D01*
X65309523Y-106465714D01*
X65500000Y-106465714D01*
X65595238Y-106513333D01*
X65642857Y-106608571D01*
X65642857Y-106703809D01*
X65166666Y-106799047D01*
X66500000Y-107084761D02*
X66404761Y-107132380D01*
X66214285Y-107132380D01*
X66119047Y-107084761D01*
X66071428Y-107037142D01*
X66023809Y-106941904D01*
X66023809Y-106656190D01*
X66071428Y-106560952D01*
X66119047Y-106513333D01*
X66214285Y-106465714D01*
X66404761Y-106465714D01*
X66500000Y-106513333D01*
X66785714Y-106465714D02*
X67166666Y-106465714D01*
X66928571Y-106132380D02*
X66928571Y-106989523D01*
X66976190Y-107084761D01*
X67071428Y-107132380D01*
X67166666Y-107132380D01*
X67642857Y-107132380D02*
X67547619Y-107084761D01*
X67500000Y-107037142D01*
X67452380Y-106941904D01*
X67452380Y-106656190D01*
X67500000Y-106560952D01*
X67547619Y-106513333D01*
X67642857Y-106465714D01*
X67785714Y-106465714D01*
X67880952Y-106513333D01*
X67928571Y-106560952D01*
X67976190Y-106656190D01*
X67976190Y-106941904D01*
X67928571Y-107037142D01*
X67880952Y-107084761D01*
X67785714Y-107132380D01*
X67642857Y-107132380D01*
X68404761Y-107132380D02*
X68404761Y-106465714D01*
X68404761Y-106656190D02*
X68452380Y-106560952D01*
X68500000Y-106513333D01*
X68595238Y-106465714D01*
X68690476Y-106465714D01*
X58872380Y-86032380D02*
X57872380Y-86032380D01*
X57872380Y-85651428D01*
X57920000Y-85556190D01*
X57967619Y-85508571D01*
X58062857Y-85460952D01*
X58205714Y-85460952D01*
X58300952Y-85508571D01*
X58348571Y-85556190D01*
X58396190Y-85651428D01*
X58396190Y-86032380D01*
X58872380Y-84889523D02*
X58824761Y-84984761D01*
X58777142Y-85032380D01*
X58681904Y-85080000D01*
X58396190Y-85080000D01*
X58300952Y-85032380D01*
X58253333Y-84984761D01*
X58205714Y-84889523D01*
X58205714Y-84746666D01*
X58253333Y-84651428D01*
X58300952Y-84603809D01*
X58396190Y-84556190D01*
X58681904Y-84556190D01*
X58777142Y-84603809D01*
X58824761Y-84651428D01*
X58872380Y-84746666D01*
X58872380Y-84889523D01*
X58205714Y-84222857D02*
X58872380Y-84032380D01*
X58396190Y-83841904D01*
X58872380Y-83651428D01*
X58205714Y-83460952D01*
X58824761Y-82699047D02*
X58872380Y-82794285D01*
X58872380Y-82984761D01*
X58824761Y-83080000D01*
X58729523Y-83127619D01*
X58348571Y-83127619D01*
X58253333Y-83080000D01*
X58205714Y-82984761D01*
X58205714Y-82794285D01*
X58253333Y-82699047D01*
X58348571Y-82651428D01*
X58443809Y-82651428D01*
X58539047Y-83127619D01*
X58872380Y-82222857D02*
X58205714Y-82222857D01*
X58396190Y-82222857D02*
X58300952Y-82175238D01*
X58253333Y-82127619D01*
X58205714Y-82032380D01*
X58205714Y-81937142D01*
X58777142Y-80270476D02*
X58824761Y-80318095D01*
X58872380Y-80460952D01*
X58872380Y-80556190D01*
X58824761Y-80699047D01*
X58729523Y-80794285D01*
X58634285Y-80841904D01*
X58443809Y-80889523D01*
X58300952Y-80889523D01*
X58110476Y-80841904D01*
X58015238Y-80794285D01*
X57920000Y-80699047D01*
X57872380Y-80556190D01*
X57872380Y-80460952D01*
X57920000Y-80318095D01*
X57967619Y-80270476D01*
X58872380Y-79699047D02*
X58824761Y-79794285D01*
X58777142Y-79841904D01*
X58681904Y-79889523D01*
X58396190Y-79889523D01*
X58300952Y-79841904D01*
X58253333Y-79794285D01*
X58205714Y-79699047D01*
X58205714Y-79556190D01*
X58253333Y-79460952D01*
X58300952Y-79413333D01*
X58396190Y-79365714D01*
X58681904Y-79365714D01*
X58777142Y-79413333D01*
X58824761Y-79460952D01*
X58872380Y-79556190D01*
X58872380Y-79699047D01*
X58205714Y-78937142D02*
X58872380Y-78937142D01*
X58300952Y-78937142D02*
X58253333Y-78889523D01*
X58205714Y-78794285D01*
X58205714Y-78651428D01*
X58253333Y-78556190D01*
X58348571Y-78508571D01*
X58872380Y-78508571D01*
X58205714Y-78032380D02*
X58872380Y-78032380D01*
X58300952Y-78032380D02*
X58253333Y-77984761D01*
X58205714Y-77889523D01*
X58205714Y-77746666D01*
X58253333Y-77651428D01*
X58348571Y-77603809D01*
X58872380Y-77603809D01*
X58824761Y-76746666D02*
X58872380Y-76841904D01*
X58872380Y-77032380D01*
X58824761Y-77127619D01*
X58729523Y-77175238D01*
X58348571Y-77175238D01*
X58253333Y-77127619D01*
X58205714Y-77032380D01*
X58205714Y-76841904D01*
X58253333Y-76746666D01*
X58348571Y-76699047D01*
X58443809Y-76699047D01*
X58539047Y-77175238D01*
X58824761Y-75841904D02*
X58872380Y-75937142D01*
X58872380Y-76127619D01*
X58824761Y-76222857D01*
X58777142Y-76270476D01*
X58681904Y-76318095D01*
X58396190Y-76318095D01*
X58300952Y-76270476D01*
X58253333Y-76222857D01*
X58205714Y-76127619D01*
X58205714Y-75937142D01*
X58253333Y-75841904D01*
X58205714Y-75556190D02*
X58205714Y-75175238D01*
X57872380Y-75413333D02*
X58729523Y-75413333D01*
X58824761Y-75365714D01*
X58872380Y-75270476D01*
X58872380Y-75175238D01*
X58872380Y-74699047D02*
X58824761Y-74794285D01*
X58777142Y-74841904D01*
X58681904Y-74889523D01*
X58396190Y-74889523D01*
X58300952Y-74841904D01*
X58253333Y-74794285D01*
X58205714Y-74699047D01*
X58205714Y-74556190D01*
X58253333Y-74460952D01*
X58300952Y-74413333D01*
X58396190Y-74365714D01*
X58681904Y-74365714D01*
X58777142Y-74413333D01*
X58824761Y-74460952D01*
X58872380Y-74556190D01*
X58872380Y-74699047D01*
X58872380Y-73937142D02*
X58205714Y-73937142D01*
X58396190Y-73937142D02*
X58300952Y-73889523D01*
X58253333Y-73841904D01*
X58205714Y-73746666D01*
X58205714Y-73651428D01*
X58872380Y-72556190D02*
X57872380Y-72556190D01*
X57872380Y-72175238D01*
X57920000Y-72080000D01*
X57967619Y-72032380D01*
X58062857Y-71984761D01*
X58205714Y-71984761D01*
X58300952Y-72032380D01*
X58348571Y-72080000D01*
X58396190Y-72175238D01*
X58396190Y-72556190D01*
X58872380Y-71556190D02*
X58205714Y-71556190D01*
X57872380Y-71556190D02*
X57920000Y-71603809D01*
X57967619Y-71556190D01*
X57920000Y-71508571D01*
X57872380Y-71556190D01*
X57967619Y-71556190D01*
X58205714Y-71080000D02*
X58872380Y-71080000D01*
X58300952Y-71080000D02*
X58253333Y-71032380D01*
X58205714Y-70937142D01*
X58205714Y-70794285D01*
X58253333Y-70699047D01*
X58348571Y-70651428D01*
X58872380Y-70651428D01*
X58872380Y-68889523D02*
X58872380Y-69460952D01*
X58872380Y-69175238D02*
X57872380Y-69175238D01*
X58015238Y-69270476D01*
X58110476Y-69365714D01*
X58158095Y-69460952D01*
X58205714Y-67699047D02*
X59205714Y-67699047D01*
X58253333Y-67699047D02*
X58205714Y-67603809D01*
X58205714Y-67413333D01*
X58253333Y-67318095D01*
X58300952Y-67270476D01*
X58396190Y-67222857D01*
X58681904Y-67222857D01*
X58777142Y-67270476D01*
X58824761Y-67318095D01*
X58872380Y-67413333D01*
X58872380Y-67603809D01*
X58824761Y-67699047D01*
X58872380Y-66651428D02*
X58824761Y-66746666D01*
X58777142Y-66794285D01*
X58681904Y-66841904D01*
X58396190Y-66841904D01*
X58300952Y-66794285D01*
X58253333Y-66746666D01*
X58205714Y-66651428D01*
X58205714Y-66508571D01*
X58253333Y-66413333D01*
X58300952Y-66365714D01*
X58396190Y-66318095D01*
X58681904Y-66318095D01*
X58777142Y-66365714D01*
X58824761Y-66413333D01*
X58872380Y-66508571D01*
X58872380Y-66651428D01*
X58824761Y-65937142D02*
X58872380Y-65841904D01*
X58872380Y-65651428D01*
X58824761Y-65556190D01*
X58729523Y-65508571D01*
X58681904Y-65508571D01*
X58586666Y-65556190D01*
X58539047Y-65651428D01*
X58539047Y-65794285D01*
X58491428Y-65889523D01*
X58396190Y-65937142D01*
X58348571Y-65937142D01*
X58253333Y-65889523D01*
X58205714Y-65794285D01*
X58205714Y-65651428D01*
X58253333Y-65556190D01*
X58205714Y-65222857D02*
X58205714Y-64841904D01*
X57872380Y-65080000D02*
X58729523Y-65080000D01*
X58824761Y-65032380D01*
X58872380Y-64937142D01*
X58872380Y-64841904D01*
X58872380Y-64508571D02*
X58205714Y-64508571D01*
X57872380Y-64508571D02*
X57920000Y-64556190D01*
X57967619Y-64508571D01*
X57920000Y-64460952D01*
X57872380Y-64508571D01*
X57967619Y-64508571D01*
X58205714Y-64127619D02*
X58872380Y-63889523D01*
X58205714Y-63651428D01*
X58824761Y-62889523D02*
X58872380Y-62984761D01*
X58872380Y-63175238D01*
X58824761Y-63270476D01*
X58729523Y-63318095D01*
X58348571Y-63318095D01*
X58253333Y-63270476D01*
X58205714Y-63175238D01*
X58205714Y-62984761D01*
X58253333Y-62889523D01*
X58348571Y-62841904D01*
X58443809Y-62841904D01*
X58539047Y-63318095D01*
X58205714Y-61651428D02*
X59205714Y-61651428D01*
X58253333Y-61651428D02*
X58205714Y-61556190D01*
X58205714Y-61365714D01*
X58253333Y-61270476D01*
X58300952Y-61222857D01*
X58396190Y-61175238D01*
X58681904Y-61175238D01*
X58777142Y-61222857D01*
X58824761Y-61270476D01*
X58872380Y-61365714D01*
X58872380Y-61556190D01*
X58824761Y-61651428D01*
X58872380Y-60746666D02*
X58205714Y-60746666D01*
X57872380Y-60746666D02*
X57920000Y-60794285D01*
X57967619Y-60746666D01*
X57920000Y-60699047D01*
X57872380Y-60746666D01*
X57967619Y-60746666D01*
X58205714Y-60270476D02*
X58872380Y-60270476D01*
X58300952Y-60270476D02*
X58253333Y-60222857D01*
X58205714Y-60127619D01*
X58205714Y-59984761D01*
X58253333Y-59889523D01*
X58348571Y-59841904D01*
X58872380Y-59841904D01*
X57967619Y-58651428D02*
X57920000Y-58603809D01*
X57872380Y-58508571D01*
X57872380Y-58270476D01*
X57920000Y-58175238D01*
X57967619Y-58127619D01*
X58062857Y-58080000D01*
X58158095Y-58080000D01*
X58300952Y-58127619D01*
X58872380Y-58699047D01*
X58872380Y-58080000D01*
X58205714Y-56889523D02*
X58872380Y-56889523D01*
X58300952Y-56889523D02*
X58253333Y-56841904D01*
X58205714Y-56746666D01*
X58205714Y-56603809D01*
X58253333Y-56508571D01*
X58348571Y-56460952D01*
X58872380Y-56460952D01*
X58824761Y-55603809D02*
X58872380Y-55699047D01*
X58872380Y-55889523D01*
X58824761Y-55984761D01*
X58729523Y-56032380D01*
X58348571Y-56032380D01*
X58253333Y-55984761D01*
X58205714Y-55889523D01*
X58205714Y-55699047D01*
X58253333Y-55603809D01*
X58348571Y-55556190D01*
X58443809Y-55556190D01*
X58539047Y-56032380D01*
X58205714Y-54699047D02*
X59015238Y-54699047D01*
X59110476Y-54746666D01*
X59158095Y-54794285D01*
X59205714Y-54889523D01*
X59205714Y-55032380D01*
X59158095Y-55127619D01*
X58824761Y-54699047D02*
X58872380Y-54794285D01*
X58872380Y-54984761D01*
X58824761Y-55080000D01*
X58777142Y-55127619D01*
X58681904Y-55175238D01*
X58396190Y-55175238D01*
X58300952Y-55127619D01*
X58253333Y-55080000D01*
X58205714Y-54984761D01*
X58205714Y-54794285D01*
X58253333Y-54699047D01*
X58872380Y-53794285D02*
X58348571Y-53794285D01*
X58253333Y-53841904D01*
X58205714Y-53937142D01*
X58205714Y-54127619D01*
X58253333Y-54222857D01*
X58824761Y-53794285D02*
X58872380Y-53889523D01*
X58872380Y-54127619D01*
X58824761Y-54222857D01*
X58729523Y-54270476D01*
X58634285Y-54270476D01*
X58539047Y-54222857D01*
X58491428Y-54127619D01*
X58491428Y-53889523D01*
X58443809Y-53794285D01*
X58205714Y-53460952D02*
X58205714Y-53080000D01*
X57872380Y-53318095D02*
X58729523Y-53318095D01*
X58824761Y-53270476D01*
X58872380Y-53175238D01*
X58872380Y-53080000D01*
X58872380Y-52746666D02*
X58205714Y-52746666D01*
X57872380Y-52746666D02*
X57920000Y-52794285D01*
X57967619Y-52746666D01*
X57920000Y-52699047D01*
X57872380Y-52746666D01*
X57967619Y-52746666D01*
X58205714Y-52365714D02*
X58872380Y-52127619D01*
X58205714Y-51889523D01*
X58824761Y-51127619D02*
X58872380Y-51222857D01*
X58872380Y-51413333D01*
X58824761Y-51508571D01*
X58729523Y-51556190D01*
X58348571Y-51556190D01*
X58253333Y-51508571D01*
X58205714Y-51413333D01*
X58205714Y-51222857D01*
X58253333Y-51127619D01*
X58348571Y-51080000D01*
X58443809Y-51080000D01*
X58539047Y-51556190D01*
X65097142Y-43632380D02*
X64620952Y-43632380D01*
X64620952Y-42632380D01*
X65811428Y-43584761D02*
X65716190Y-43632380D01*
X65525714Y-43632380D01*
X65430476Y-43584761D01*
X65382857Y-43489523D01*
X65382857Y-43108571D01*
X65430476Y-43013333D01*
X65525714Y-42965714D01*
X65716190Y-42965714D01*
X65811428Y-43013333D01*
X65859047Y-43108571D01*
X65859047Y-43203809D01*
X65382857Y-43299047D01*
X66716190Y-43632380D02*
X66716190Y-42632380D01*
X66716190Y-43584761D02*
X66620952Y-43632380D01*
X66430476Y-43632380D01*
X66335238Y-43584761D01*
X66287619Y-43537142D01*
X66240000Y-43441904D01*
X66240000Y-43156190D01*
X66287619Y-43060952D01*
X66335238Y-43013333D01*
X66430476Y-42965714D01*
X66620952Y-42965714D01*
X66716190Y-43013333D01*
X68525714Y-43537142D02*
X68478095Y-43584761D01*
X68335238Y-43632380D01*
X68240000Y-43632380D01*
X68097142Y-43584761D01*
X68001904Y-43489523D01*
X67954285Y-43394285D01*
X67906666Y-43203809D01*
X67906666Y-43060952D01*
X67954285Y-42870476D01*
X68001904Y-42775238D01*
X68097142Y-42680000D01*
X68240000Y-42632380D01*
X68335238Y-42632380D01*
X68478095Y-42680000D01*
X68525714Y-42727619D01*
X69097142Y-43632380D02*
X69001904Y-43584761D01*
X68954285Y-43537142D01*
X68906666Y-43441904D01*
X68906666Y-43156190D01*
X68954285Y-43060952D01*
X69001904Y-43013333D01*
X69097142Y-42965714D01*
X69240000Y-42965714D01*
X69335238Y-43013333D01*
X69382857Y-43060952D01*
X69430476Y-43156190D01*
X69430476Y-43441904D01*
X69382857Y-43537142D01*
X69335238Y-43584761D01*
X69240000Y-43632380D01*
X69097142Y-43632380D01*
X69859047Y-42965714D02*
X69859047Y-43632380D01*
X69859047Y-43060952D02*
X69906666Y-43013333D01*
X70001904Y-42965714D01*
X70144761Y-42965714D01*
X70240000Y-43013333D01*
X70287619Y-43108571D01*
X70287619Y-43632380D01*
X70763809Y-42965714D02*
X70763809Y-43632380D01*
X70763809Y-43060952D02*
X70811428Y-43013333D01*
X70906666Y-42965714D01*
X71049523Y-42965714D01*
X71144761Y-43013333D01*
X71192380Y-43108571D01*
X71192380Y-43632380D01*
X72049523Y-43584761D02*
X71954285Y-43632380D01*
X71763809Y-43632380D01*
X71668571Y-43584761D01*
X71620952Y-43489523D01*
X71620952Y-43108571D01*
X71668571Y-43013333D01*
X71763809Y-42965714D01*
X71954285Y-42965714D01*
X72049523Y-43013333D01*
X72097142Y-43108571D01*
X72097142Y-43203809D01*
X71620952Y-43299047D01*
X72954285Y-43584761D02*
X72859047Y-43632380D01*
X72668571Y-43632380D01*
X72573333Y-43584761D01*
X72525714Y-43537142D01*
X72478095Y-43441904D01*
X72478095Y-43156190D01*
X72525714Y-43060952D01*
X72573333Y-43013333D01*
X72668571Y-42965714D01*
X72859047Y-42965714D01*
X72954285Y-43013333D01*
X73240000Y-42965714D02*
X73620952Y-42965714D01*
X73382857Y-42632380D02*
X73382857Y-43489523D01*
X73430476Y-43584761D01*
X73525714Y-43632380D01*
X73620952Y-43632380D01*
X74097142Y-43632380D02*
X74001904Y-43584761D01*
X73954285Y-43537142D01*
X73906666Y-43441904D01*
X73906666Y-43156190D01*
X73954285Y-43060952D01*
X74001904Y-43013333D01*
X74097142Y-42965714D01*
X74240000Y-42965714D01*
X74335238Y-43013333D01*
X74382857Y-43060952D01*
X74430476Y-43156190D01*
X74430476Y-43441904D01*
X74382857Y-43537142D01*
X74335238Y-43584761D01*
X74240000Y-43632380D01*
X74097142Y-43632380D01*
X74859047Y-43632380D02*
X74859047Y-42965714D01*
X74859047Y-43156190D02*
X74906666Y-43060952D01*
X74954285Y-43013333D01*
X75049523Y-42965714D01*
X75144761Y-42965714D01*
X75430476Y-43584761D02*
X75525714Y-43632380D01*
X75716190Y-43632380D01*
X75811428Y-43584761D01*
X75859047Y-43489523D01*
X75859047Y-43441904D01*
X75811428Y-43346666D01*
X75716190Y-43299047D01*
X75573333Y-43299047D01*
X75478095Y-43251428D01*
X75430476Y-43156190D01*
X75430476Y-43108571D01*
X75478095Y-43013333D01*
X75573333Y-42965714D01*
X75716190Y-42965714D01*
X75811428Y-43013333D01*
X77049523Y-42965714D02*
X77049523Y-43965714D01*
X77049523Y-43013333D02*
X77144761Y-42965714D01*
X77335238Y-42965714D01*
X77430476Y-43013333D01*
X77478095Y-43060952D01*
X77525714Y-43156190D01*
X77525714Y-43441904D01*
X77478095Y-43537142D01*
X77430476Y-43584761D01*
X77335238Y-43632380D01*
X77144761Y-43632380D01*
X77049523Y-43584761D01*
X77954285Y-43632380D02*
X77954285Y-42965714D01*
X77954285Y-42632380D02*
X77906666Y-42680000D01*
X77954285Y-42727619D01*
X78001904Y-42680000D01*
X77954285Y-42632380D01*
X77954285Y-42727619D01*
X78430476Y-42965714D02*
X78430476Y-43632380D01*
X78430476Y-43060952D02*
X78478095Y-43013333D01*
X78573333Y-42965714D01*
X78716190Y-42965714D01*
X78811428Y-43013333D01*
X78859047Y-43108571D01*
X78859047Y-43632380D01*
X80620952Y-43632380D02*
X80049523Y-43632380D01*
X80335238Y-43632380D02*
X80335238Y-42632380D01*
X80240000Y-42775238D01*
X80144761Y-42870476D01*
X80049523Y-42918095D01*
X81811428Y-43251428D02*
X82573333Y-43251428D01*
X82192380Y-43632380D02*
X82192380Y-42870476D01*
X83097142Y-43584761D02*
X83097142Y-43632380D01*
X83049523Y-43727619D01*
X83001904Y-43775238D01*
X84240000Y-42727619D02*
X84287619Y-42680000D01*
X84382857Y-42632380D01*
X84620952Y-42632380D01*
X84716190Y-42680000D01*
X84763809Y-42727619D01*
X84811428Y-42822857D01*
X84811428Y-42918095D01*
X84763809Y-43060952D01*
X84192380Y-43632380D01*
X84811428Y-43632380D01*
X85240000Y-43251428D02*
X86001904Y-43251428D01*
X86525714Y-43584761D02*
X86525714Y-43632380D01*
X86478095Y-43727619D01*
X86430476Y-43775238D01*
X87620952Y-42632380D02*
X88240000Y-42632380D01*
X87906666Y-43013333D01*
X88049523Y-43013333D01*
X88144761Y-43060952D01*
X88192380Y-43108571D01*
X88240000Y-43203809D01*
X88240000Y-43441904D01*
X88192380Y-43537142D01*
X88144761Y-43584761D01*
X88049523Y-43632380D01*
X87763809Y-43632380D01*
X87668571Y-43584761D01*
X87620952Y-43537142D01*
X88668571Y-43251428D02*
X89430476Y-43251428D01*
X89049523Y-43632380D02*
X89049523Y-42870476D01*
X89954285Y-43584761D02*
X89954285Y-43632380D01*
X89906666Y-43727619D01*
X89859047Y-43775238D01*
X91573333Y-42965714D02*
X91573333Y-43632380D01*
X91335238Y-42584761D02*
X91097142Y-43299047D01*
X91716190Y-43299047D01*
X92097142Y-43251428D02*
X92859047Y-43251428D01*
X57176190Y-124912380D02*
X57176190Y-123912380D01*
X57509523Y-124626666D01*
X57842857Y-123912380D01*
X57842857Y-124912380D01*
X58700000Y-124864761D02*
X58604761Y-124912380D01*
X58414285Y-124912380D01*
X58319047Y-124864761D01*
X58271428Y-124769523D01*
X58271428Y-124388571D01*
X58319047Y-124293333D01*
X58414285Y-124245714D01*
X58604761Y-124245714D01*
X58700000Y-124293333D01*
X58747619Y-124388571D01*
X58747619Y-124483809D01*
X58271428Y-124579047D01*
X59604761Y-124864761D02*
X59509523Y-124912380D01*
X59319047Y-124912380D01*
X59223809Y-124864761D01*
X59176190Y-124817142D01*
X59128571Y-124721904D01*
X59128571Y-124436190D01*
X59176190Y-124340952D01*
X59223809Y-124293333D01*
X59319047Y-124245714D01*
X59509523Y-124245714D01*
X59604761Y-124293333D01*
X60033333Y-124912380D02*
X60033333Y-123912380D01*
X60461904Y-124912380D02*
X60461904Y-124388571D01*
X60414285Y-124293333D01*
X60319047Y-124245714D01*
X60176190Y-124245714D01*
X60080952Y-124293333D01*
X60033333Y-124340952D01*
X61366666Y-124912380D02*
X61366666Y-124388571D01*
X61319047Y-124293333D01*
X61223809Y-124245714D01*
X61033333Y-124245714D01*
X60938095Y-124293333D01*
X61366666Y-124864761D02*
X61271428Y-124912380D01*
X61033333Y-124912380D01*
X60938095Y-124864761D01*
X60890476Y-124769523D01*
X60890476Y-124674285D01*
X60938095Y-124579047D01*
X61033333Y-124531428D01*
X61271428Y-124531428D01*
X61366666Y-124483809D01*
X61700000Y-124245714D02*
X62080952Y-124245714D01*
X61842857Y-123912380D02*
X61842857Y-124769523D01*
X61890476Y-124864761D01*
X61985714Y-124912380D01*
X62080952Y-124912380D01*
X62414285Y-124912380D02*
X62414285Y-124245714D01*
X62414285Y-124436190D02*
X62461904Y-124340952D01*
X62509523Y-124293333D01*
X62604761Y-124245714D01*
X62700000Y-124245714D01*
X63176190Y-124912380D02*
X63080952Y-124864761D01*
X63033333Y-124817142D01*
X62985714Y-124721904D01*
X62985714Y-124436190D01*
X63033333Y-124340952D01*
X63080952Y-124293333D01*
X63176190Y-124245714D01*
X63319047Y-124245714D01*
X63414285Y-124293333D01*
X63461904Y-124340952D01*
X63509523Y-124436190D01*
X63509523Y-124721904D01*
X63461904Y-124817142D01*
X63414285Y-124864761D01*
X63319047Y-124912380D01*
X63176190Y-124912380D01*
X63938095Y-124245714D02*
X63938095Y-124912380D01*
X63938095Y-124340952D02*
X63985714Y-124293333D01*
X64080952Y-124245714D01*
X64223809Y-124245714D01*
X64319047Y-124293333D01*
X64366666Y-124388571D01*
X64366666Y-124912380D01*
X64842857Y-124912380D02*
X64842857Y-124245714D01*
X64842857Y-123912380D02*
X64795238Y-123960000D01*
X64842857Y-124007619D01*
X64890476Y-123960000D01*
X64842857Y-123912380D01*
X64842857Y-124007619D01*
X65747619Y-124864761D02*
X65652380Y-124912380D01*
X65461904Y-124912380D01*
X65366666Y-124864761D01*
X65319047Y-124817142D01*
X65271428Y-124721904D01*
X65271428Y-124436190D01*
X65319047Y-124340952D01*
X65366666Y-124293333D01*
X65461904Y-124245714D01*
X65652380Y-124245714D01*
X65747619Y-124293333D01*
X66128571Y-124864761D02*
X66223809Y-124912380D01*
X66414285Y-124912380D01*
X66509523Y-124864761D01*
X66557142Y-124769523D01*
X66557142Y-124721904D01*
X66509523Y-124626666D01*
X66414285Y-124579047D01*
X66271428Y-124579047D01*
X66176190Y-124531428D01*
X66128571Y-124436190D01*
X66128571Y-124388571D01*
X66176190Y-124293333D01*
X66271428Y-124245714D01*
X66414285Y-124245714D01*
X66509523Y-124293333D01*
X66985714Y-124817142D02*
X67033333Y-124864761D01*
X66985714Y-124912380D01*
X66938095Y-124864761D01*
X66985714Y-124817142D01*
X66985714Y-124912380D01*
X66985714Y-124293333D02*
X67033333Y-124340952D01*
X66985714Y-124388571D01*
X66938095Y-124340952D01*
X66985714Y-124293333D01*
X66985714Y-124388571D01*
X68795238Y-124912380D02*
X68461904Y-124436190D01*
X68223809Y-124912380D02*
X68223809Y-123912380D01*
X68604761Y-123912380D01*
X68700000Y-123960000D01*
X68747619Y-124007619D01*
X68795238Y-124102857D01*
X68795238Y-124245714D01*
X68747619Y-124340952D01*
X68700000Y-124388571D01*
X68604761Y-124436190D01*
X68223809Y-124436190D01*
X69747619Y-123960000D02*
X69652380Y-123912380D01*
X69509523Y-123912380D01*
X69366666Y-123960000D01*
X69271428Y-124055238D01*
X69223809Y-124150476D01*
X69176190Y-124340952D01*
X69176190Y-124483809D01*
X69223809Y-124674285D01*
X69271428Y-124769523D01*
X69366666Y-124864761D01*
X69509523Y-124912380D01*
X69604761Y-124912380D01*
X69747619Y-124864761D01*
X69795238Y-124817142D01*
X69795238Y-124483809D01*
X69604761Y-124483809D01*
X70557142Y-124388571D02*
X70700000Y-124436190D01*
X70747619Y-124483809D01*
X70795238Y-124579047D01*
X70795238Y-124721904D01*
X70747619Y-124817142D01*
X70700000Y-124864761D01*
X70604761Y-124912380D01*
X70223809Y-124912380D01*
X70223809Y-123912380D01*
X70557142Y-123912380D01*
X70652380Y-123960000D01*
X70700000Y-124007619D01*
X70747619Y-124102857D01*
X70747619Y-124198095D01*
X70700000Y-124293333D01*
X70652380Y-124340952D01*
X70557142Y-124388571D01*
X70223809Y-124388571D01*
X71985714Y-124912380D02*
X71985714Y-123912380D01*
X72366666Y-123912380D01*
X72461904Y-123960000D01*
X72509523Y-124007619D01*
X72557142Y-124102857D01*
X72557142Y-124245714D01*
X72509523Y-124340952D01*
X72461904Y-124388571D01*
X72366666Y-124436190D01*
X71985714Y-124436190D01*
X73176190Y-123912380D02*
X73366666Y-123912380D01*
X73461904Y-123960000D01*
X73557142Y-124055238D01*
X73604761Y-124245714D01*
X73604761Y-124579047D01*
X73557142Y-124769523D01*
X73461904Y-124864761D01*
X73366666Y-124912380D01*
X73176190Y-124912380D01*
X73080952Y-124864761D01*
X72985714Y-124769523D01*
X72938095Y-124579047D01*
X72938095Y-124245714D01*
X72985714Y-124055238D01*
X73080952Y-123960000D01*
X73176190Y-123912380D01*
X73938095Y-123912380D02*
X74176190Y-124912380D01*
X74366666Y-124198095D01*
X74557142Y-124912380D01*
X74795238Y-123912380D01*
X75176190Y-124388571D02*
X75509523Y-124388571D01*
X75652380Y-124912380D02*
X75176190Y-124912380D01*
X75176190Y-123912380D01*
X75652380Y-123912380D01*
X76652380Y-124912380D02*
X76319047Y-124436190D01*
X76080952Y-124912380D02*
X76080952Y-123912380D01*
X76461904Y-123912380D01*
X76557142Y-123960000D01*
X76604761Y-124007619D01*
X76652380Y-124102857D01*
X76652380Y-124245714D01*
X76604761Y-124340952D01*
X76557142Y-124388571D01*
X76461904Y-124436190D01*
X76080952Y-124436190D01*
X78319047Y-124912380D02*
X77842857Y-124912380D01*
X77842857Y-123912380D01*
X78652380Y-124388571D02*
X78985714Y-124388571D01*
X79128571Y-124912380D02*
X78652380Y-124912380D01*
X78652380Y-123912380D01*
X79128571Y-123912380D01*
X79557142Y-124912380D02*
X79557142Y-123912380D01*
X79795238Y-123912380D01*
X79938095Y-123960000D01*
X80033333Y-124055238D01*
X80080952Y-124150476D01*
X80128571Y-124340952D01*
X80128571Y-124483809D01*
X80080952Y-124674285D01*
X80033333Y-124769523D01*
X79938095Y-124864761D01*
X79795238Y-124912380D01*
X79557142Y-124912380D01*
X81890476Y-124817142D02*
X81842857Y-124864761D01*
X81700000Y-124912380D01*
X81604761Y-124912380D01*
X81461904Y-124864761D01*
X81366666Y-124769523D01*
X81319047Y-124674285D01*
X81271428Y-124483809D01*
X81271428Y-124340952D01*
X81319047Y-124150476D01*
X81366666Y-124055238D01*
X81461904Y-123960000D01*
X81604761Y-123912380D01*
X81700000Y-123912380D01*
X81842857Y-123960000D01*
X81890476Y-124007619D01*
X82509523Y-123912380D02*
X82700000Y-123912380D01*
X82795238Y-123960000D01*
X82890476Y-124055238D01*
X82938095Y-124245714D01*
X82938095Y-124579047D01*
X82890476Y-124769523D01*
X82795238Y-124864761D01*
X82700000Y-124912380D01*
X82509523Y-124912380D01*
X82414285Y-124864761D01*
X82319047Y-124769523D01*
X82271428Y-124579047D01*
X82271428Y-124245714D01*
X82319047Y-124055238D01*
X82414285Y-123960000D01*
X82509523Y-123912380D01*
X83366666Y-124912380D02*
X83366666Y-123912380D01*
X83938095Y-124912380D01*
X83938095Y-123912380D01*
X84271428Y-123912380D02*
X84842857Y-123912380D01*
X84557142Y-124912380D02*
X84557142Y-123912380D01*
X85747619Y-124912380D02*
X85414285Y-124436190D01*
X85176190Y-124912380D02*
X85176190Y-123912380D01*
X85557142Y-123912380D01*
X85652380Y-123960000D01*
X85700000Y-124007619D01*
X85747619Y-124102857D01*
X85747619Y-124245714D01*
X85700000Y-124340952D01*
X85652380Y-124388571D01*
X85557142Y-124436190D01*
X85176190Y-124436190D01*
X86366666Y-123912380D02*
X86557142Y-123912380D01*
X86652380Y-123960000D01*
X86747619Y-124055238D01*
X86795238Y-124245714D01*
X86795238Y-124579047D01*
X86747619Y-124769523D01*
X86652380Y-124864761D01*
X86557142Y-124912380D01*
X86366666Y-124912380D01*
X86271428Y-124864761D01*
X86176190Y-124769523D01*
X86128571Y-124579047D01*
X86128571Y-124245714D01*
X86176190Y-124055238D01*
X86271428Y-123960000D01*
X86366666Y-123912380D01*
X87700000Y-124912380D02*
X87223809Y-124912380D01*
X87223809Y-123912380D01*
X88509523Y-124912380D02*
X88033333Y-124912380D01*
X88033333Y-123912380D01*
X88842857Y-124388571D02*
X89176190Y-124388571D01*
X89319047Y-124912380D02*
X88842857Y-124912380D01*
X88842857Y-123912380D01*
X89319047Y-123912380D01*
X90319047Y-124912380D02*
X89985714Y-124436190D01*
X89747619Y-124912380D02*
X89747619Y-123912380D01*
X90128571Y-123912380D01*
X90223809Y-123960000D01*
X90271428Y-124007619D01*
X90319047Y-124102857D01*
X90319047Y-124245714D01*
X90271428Y-124340952D01*
X90223809Y-124388571D01*
X90128571Y-124436190D01*
X89747619Y-124436190D01*
X92080952Y-124912380D02*
X91747619Y-124436190D01*
X91509523Y-124912380D02*
X91509523Y-123912380D01*
X91890476Y-123912380D01*
X91985714Y-123960000D01*
X92033333Y-124007619D01*
X92080952Y-124102857D01*
X92080952Y-124245714D01*
X92033333Y-124340952D01*
X91985714Y-124388571D01*
X91890476Y-124436190D01*
X91509523Y-124436190D01*
X92509523Y-124388571D02*
X92842857Y-124388571D01*
X92985714Y-124912380D02*
X92509523Y-124912380D01*
X92509523Y-123912380D01*
X92985714Y-123912380D01*
X93271428Y-123912380D02*
X93604761Y-124912380D01*
X93938095Y-123912380D01*
X94271428Y-124817142D02*
X94319047Y-124864761D01*
X94271428Y-124912380D01*
X94223809Y-124864761D01*
X94271428Y-124817142D01*
X94271428Y-124912380D01*
X95271428Y-124912380D02*
X94700000Y-124912380D01*
X94985714Y-124912380D02*
X94985714Y-123912380D01*
X94890476Y-124055238D01*
X94795238Y-124150476D01*
X94700000Y-124198095D01*
X57571428Y-127452380D02*
X57571428Y-126452380D01*
X58142857Y-127452380D02*
X57714285Y-126880952D01*
X58142857Y-126452380D02*
X57571428Y-127023809D01*
X58571428Y-127452380D02*
X58571428Y-126452380D01*
X59000000Y-127452380D02*
X59000000Y-126928571D01*
X58952380Y-126833333D01*
X58857142Y-126785714D01*
X58714285Y-126785714D01*
X58619047Y-126833333D01*
X58571428Y-126880952D01*
X59904761Y-127452380D02*
X59904761Y-126928571D01*
X59857142Y-126833333D01*
X59761904Y-126785714D01*
X59571428Y-126785714D01*
X59476190Y-126833333D01*
X59904761Y-127404761D02*
X59809523Y-127452380D01*
X59571428Y-127452380D01*
X59476190Y-127404761D01*
X59428571Y-127309523D01*
X59428571Y-127214285D01*
X59476190Y-127119047D01*
X59571428Y-127071428D01*
X59809523Y-127071428D01*
X59904761Y-127023809D01*
X60523809Y-127452380D02*
X60428571Y-127404761D01*
X60380952Y-127309523D01*
X60380952Y-126452380D01*
X60904761Y-127452380D02*
X60904761Y-126785714D01*
X60904761Y-126452380D02*
X60857142Y-126500000D01*
X60904761Y-126547619D01*
X60952380Y-126500000D01*
X60904761Y-126452380D01*
X60904761Y-126547619D01*
X61809523Y-127452380D02*
X61809523Y-126928571D01*
X61761904Y-126833333D01*
X61666666Y-126785714D01*
X61476190Y-126785714D01*
X61380952Y-126833333D01*
X61809523Y-127404761D02*
X61714285Y-127452380D01*
X61476190Y-127452380D01*
X61380952Y-127404761D01*
X61333333Y-127309523D01*
X61333333Y-127214285D01*
X61380952Y-127119047D01*
X61476190Y-127071428D01*
X61714285Y-127071428D01*
X61809523Y-127023809D01*
X63000000Y-126547619D02*
X63047619Y-126500000D01*
X63142857Y-126452380D01*
X63380952Y-126452380D01*
X63476190Y-126500000D01*
X63523809Y-126547619D01*
X63571428Y-126642857D01*
X63571428Y-126738095D01*
X63523809Y-126880952D01*
X62952380Y-127452380D01*
X63571428Y-127452380D01*
X64714285Y-126404761D02*
X63857142Y-127690476D01*
X65000000Y-126547619D02*
X65047619Y-126500000D01*
X65142857Y-126452380D01*
X65380952Y-126452380D01*
X65476190Y-126500000D01*
X65523809Y-126547619D01*
X65571428Y-126642857D01*
X65571428Y-126738095D01*
X65523809Y-126880952D01*
X64952380Y-127452380D01*
X65571428Y-127452380D01*
X65904761Y-126452380D02*
X66523809Y-126452380D01*
X66190476Y-126833333D01*
X66333333Y-126833333D01*
X66428571Y-126880952D01*
X66476190Y-126928571D01*
X66523809Y-127023809D01*
X66523809Y-127261904D01*
X66476190Y-127357142D01*
X66428571Y-127404761D01*
X66333333Y-127452380D01*
X66047619Y-127452380D01*
X65952380Y-127404761D01*
X65904761Y-127357142D01*
X67666666Y-126404761D02*
X66809523Y-127690476D01*
X67952380Y-126547619D02*
X68000000Y-126500000D01*
X68095238Y-126452380D01*
X68333333Y-126452380D01*
X68428571Y-126500000D01*
X68476190Y-126547619D01*
X68523809Y-126642857D01*
X68523809Y-126738095D01*
X68476190Y-126880952D01*
X67904761Y-127452380D01*
X68523809Y-127452380D01*
X68857142Y-126452380D02*
X69476190Y-126452380D01*
X69142857Y-126833333D01*
X69285714Y-126833333D01*
X69380952Y-126880952D01*
X69428571Y-126928571D01*
X69476190Y-127023809D01*
X69476190Y-127261904D01*
X69428571Y-127357142D01*
X69380952Y-127404761D01*
X69285714Y-127452380D01*
X69000000Y-127452380D01*
X68904761Y-127404761D01*
X68857142Y-127357142D01*
%TO.C,U1*%
X124305335Y-57781779D02*
X125116293Y-57781779D01*
X125211700Y-57734076D01*
X125259404Y-57686373D01*
X125307107Y-57590966D01*
X125307107Y-57400152D01*
X125259404Y-57304745D01*
X125211700Y-57257042D01*
X125116293Y-57209338D01*
X124305335Y-57209338D01*
X125307107Y-56207566D02*
X125307107Y-56780007D01*
X125307107Y-56493787D02*
X124305335Y-56493787D01*
X124448445Y-56589194D01*
X124543852Y-56684601D01*
X124591556Y-56780007D01*
%TO.C,J3*%
X68402380Y-61515833D02*
X69116666Y-61515833D01*
X69259523Y-61563452D01*
X69354761Y-61658690D01*
X69402380Y-61801547D01*
X69402380Y-61896785D01*
X68402380Y-61134880D02*
X68402380Y-60515833D01*
X68783333Y-60849166D01*
X68783333Y-60706309D01*
X68830952Y-60611071D01*
X68878571Y-60563452D01*
X68973809Y-60515833D01*
X69211904Y-60515833D01*
X69307142Y-60563452D01*
X69354761Y-60611071D01*
X69402380Y-60706309D01*
X69402380Y-60992023D01*
X69354761Y-61087261D01*
X69307142Y-61134880D01*
%TO.C,U4*%
X97355335Y-57256779D02*
X98166293Y-57256779D01*
X98261700Y-57209076D01*
X98309404Y-57161373D01*
X98357107Y-57065966D01*
X98357107Y-56875152D01*
X98309404Y-56779745D01*
X98261700Y-56732042D01*
X98166293Y-56684338D01*
X97355335Y-56684338D01*
X97689259Y-55777973D02*
X98357107Y-55777973D01*
X97307632Y-56016490D02*
X98023183Y-56255007D01*
X98023183Y-55634863D01*
%TO.C,J2*%
X101266666Y-41097380D02*
X101266666Y-41811666D01*
X101219047Y-41954523D01*
X101123809Y-42049761D01*
X100980952Y-42097380D01*
X100885714Y-42097380D01*
X101695238Y-41192619D02*
X101742857Y-41145000D01*
X101838095Y-41097380D01*
X102076190Y-41097380D01*
X102171428Y-41145000D01*
X102219047Y-41192619D01*
X102266666Y-41287857D01*
X102266666Y-41383095D01*
X102219047Y-41525952D01*
X101647619Y-42097380D01*
X102266666Y-42097380D01*
%TO.C,U2*%
X178187835Y-57256779D02*
X178998793Y-57256779D01*
X179094200Y-57209076D01*
X179141904Y-57161373D01*
X179189607Y-57065966D01*
X179189607Y-56875152D01*
X179141904Y-56779745D01*
X179094200Y-56732042D01*
X178998793Y-56684338D01*
X178187835Y-56684338D01*
X178283242Y-56255007D02*
X178235539Y-56207304D01*
X178187835Y-56111897D01*
X178187835Y-55873380D01*
X178235539Y-55777973D01*
X178283242Y-55730270D01*
X178378649Y-55682566D01*
X178474056Y-55682566D01*
X178617166Y-55730270D01*
X179189607Y-56302711D01*
X179189607Y-55682566D01*
%TO.C,J4*%
X67852380Y-99393333D02*
X68566666Y-99393333D01*
X68709523Y-99440952D01*
X68804761Y-99536190D01*
X68852380Y-99679047D01*
X68852380Y-99774285D01*
X68185714Y-98488571D02*
X68852380Y-98488571D01*
X67804761Y-98726666D02*
X68519047Y-98964761D01*
X68519047Y-98345714D01*
%TO.C,J1*%
X134286666Y-41097380D02*
X134286666Y-41811666D01*
X134239047Y-41954523D01*
X134143809Y-42049761D01*
X134000952Y-42097380D01*
X133905714Y-42097380D01*
X135286666Y-42097380D02*
X134715238Y-42097380D01*
X135000952Y-42097380D02*
X135000952Y-41097380D01*
X134905714Y-41240238D01*
X134810476Y-41335476D01*
X134715238Y-41383095D01*
%TO.C,U3*%
X151237835Y-57256779D02*
X152048793Y-57256779D01*
X152144200Y-57209076D01*
X152191904Y-57161373D01*
X152239607Y-57065966D01*
X152239607Y-56875152D01*
X152191904Y-56779745D01*
X152144200Y-56732042D01*
X152048793Y-56684338D01*
X151237835Y-56684338D01*
X151237835Y-56302711D02*
X151237835Y-55682566D01*
X151619463Y-56016490D01*
X151619463Y-55873380D01*
X151667166Y-55777973D01*
X151714869Y-55730270D01*
X151810276Y-55682566D01*
X152048793Y-55682566D01*
X152144200Y-55730270D01*
X152191904Y-55777973D01*
X152239607Y-55873380D01*
X152239607Y-56159601D01*
X152191904Y-56255007D01*
X152144200Y-56302711D01*
%TO.C,A1*%
X171606666Y-120094285D02*
X171606666Y-119618095D01*
X171892380Y-120189523D02*
X170892380Y-119856190D01*
X171892380Y-119522857D01*
X171892380Y-118665714D02*
X171892380Y-119237142D01*
X171892380Y-118951428D02*
X170892380Y-118951428D01*
X171035238Y-119046666D01*
X171130476Y-119141904D01*
X171178095Y-119237142D01*
X131347619Y-118118095D02*
X130538095Y-118118095D01*
X130442857Y-118165714D01*
X130395238Y-118213333D01*
X130347619Y-118308571D01*
X130347619Y-118499047D01*
X130395238Y-118594285D01*
X130442857Y-118641904D01*
X130538095Y-118689523D01*
X131347619Y-118689523D01*
X130395238Y-119118095D02*
X130347619Y-119260952D01*
X130347619Y-119499047D01*
X130395238Y-119594285D01*
X130442857Y-119641904D01*
X130538095Y-119689523D01*
X130633333Y-119689523D01*
X130728571Y-119641904D01*
X130776190Y-119594285D01*
X130823809Y-119499047D01*
X130871428Y-119308571D01*
X130919047Y-119213333D01*
X130966666Y-119165714D01*
X131061904Y-119118095D01*
X131157142Y-119118095D01*
X131252380Y-119165714D01*
X131300000Y-119213333D01*
X131347619Y-119308571D01*
X131347619Y-119546666D01*
X131300000Y-119689523D01*
X130871428Y-120451428D02*
X130823809Y-120594285D01*
X130776190Y-120641904D01*
X130680952Y-120689523D01*
X130538095Y-120689523D01*
X130442857Y-120641904D01*
X130395238Y-120594285D01*
X130347619Y-120499047D01*
X130347619Y-120118095D01*
X131347619Y-120118095D01*
X131347619Y-120451428D01*
X131300000Y-120546666D01*
X131252380Y-120594285D01*
X131157142Y-120641904D01*
X131061904Y-120641904D01*
X130966666Y-120594285D01*
X130919047Y-120546666D01*
X130871428Y-120451428D01*
X130871428Y-120118095D01*
D11*
%TO.C,U1*%
X122927500Y-53865000D02*
X97527500Y-53865000D01*
X122927500Y-104665000D02*
X122927500Y-53865000D01*
X97527500Y-53865000D02*
X97527500Y-104665000D01*
X97527500Y-104665000D02*
X122927500Y-104665000D01*
D12*
%TO.C,J3*%
X67860000Y-66002500D02*
X66160000Y-66002500D01*
X66160000Y-55162500D02*
X66160000Y-56362500D01*
X66160000Y-56362500D02*
X67860000Y-56362500D01*
X67860000Y-56362500D02*
X67860000Y-66002500D01*
X66160000Y-67202500D02*
X59140000Y-67202500D01*
X59140000Y-55162500D02*
X66160000Y-55162500D01*
X64350000Y-54362500D02*
X64050000Y-54962500D01*
X66160000Y-66002500D02*
X66160000Y-67202500D01*
X63750000Y-54362500D02*
X64350000Y-54362500D01*
X64050000Y-54962500D02*
X63750000Y-54362500D01*
X59140000Y-67202500D02*
X59140000Y-55162500D01*
D11*
%TO.C,U4*%
X70577500Y-104140000D02*
X95977500Y-104140000D01*
X70577500Y-53340000D02*
X70577500Y-104140000D01*
X95977500Y-53340000D02*
X70577500Y-53340000D01*
X95977500Y-104140000D02*
X95977500Y-53340000D01*
D12*
%TO.C,J2*%
X96250000Y-42445000D02*
X95000000Y-42445000D01*
X95290000Y-42735000D02*
X95290000Y-48705000D01*
X97100000Y-43495000D02*
X97100000Y-42745000D01*
X106100000Y-43495000D02*
X107900000Y-43495000D01*
X96050000Y-44995000D02*
X96050000Y-46335000D01*
X107910000Y-48705000D02*
X107910000Y-42735000D01*
X107900000Y-43495000D02*
X107900000Y-42745000D01*
X107910000Y-42735000D02*
X95290000Y-42735000D01*
X95000000Y-42445000D02*
X95000000Y-43695000D01*
X95300000Y-44995000D02*
X96050000Y-44995000D01*
X107900000Y-42745000D02*
X106100000Y-42745000D01*
X97100000Y-42745000D02*
X95300000Y-42745000D01*
X98600000Y-42745000D02*
X98600000Y-43495000D01*
X95290000Y-48705000D02*
X107910000Y-48705000D01*
X104600000Y-43495000D02*
X104600000Y-42745000D01*
X107900000Y-44995000D02*
X107150000Y-44995000D01*
X107150000Y-44995000D02*
X107150000Y-47945000D01*
X101600000Y-47945000D02*
X97110000Y-47945000D01*
X98600000Y-43495000D02*
X104600000Y-43495000D01*
X107150000Y-47945000D02*
X101600000Y-47945000D01*
X95300000Y-42745000D02*
X95300000Y-43495000D01*
X106100000Y-42745000D02*
X106100000Y-43495000D01*
X104600000Y-42745000D02*
X98600000Y-42745000D01*
X95300000Y-43495000D02*
X97100000Y-43495000D01*
D11*
%TO.C,U2*%
X176810000Y-53340000D02*
X151410000Y-53340000D01*
X176810000Y-104140000D02*
X176810000Y-53340000D01*
X151410000Y-104140000D02*
X176810000Y-104140000D01*
X151410000Y-53340000D02*
X151410000Y-104140000D01*
D12*
%TO.C,J4*%
X63500000Y-92840000D02*
X63200000Y-92240000D01*
X63200000Y-92240000D02*
X63800000Y-92240000D01*
X58590000Y-93040000D02*
X65610000Y-93040000D01*
X67310000Y-103880000D02*
X65610000Y-103880000D01*
X67310000Y-94240000D02*
X67310000Y-103880000D01*
X65610000Y-94240000D02*
X67310000Y-94240000D01*
X65610000Y-103880000D02*
X65610000Y-105080000D01*
X65610000Y-93040000D02*
X65610000Y-94240000D01*
X63800000Y-92240000D02*
X63500000Y-92840000D01*
X58590000Y-105080000D02*
X58590000Y-93040000D01*
X65610000Y-105080000D02*
X58590000Y-105080000D01*
%TO.C,J1*%
X131620000Y-42745000D02*
X131620000Y-43495000D01*
X140170000Y-44995000D02*
X140170000Y-47945000D01*
X130120000Y-43495000D02*
X130120000Y-42745000D01*
X134620000Y-47945000D02*
X130130000Y-47945000D01*
X131620000Y-43495000D02*
X137620000Y-43495000D01*
X129070000Y-44995000D02*
X129070000Y-46335000D01*
X129270000Y-42445000D02*
X128020000Y-42445000D01*
X128320000Y-42745000D02*
X128320000Y-43495000D01*
X128320000Y-44995000D02*
X129070000Y-44995000D01*
X140920000Y-42745000D02*
X139120000Y-42745000D01*
X140170000Y-47945000D02*
X134620000Y-47945000D01*
X139120000Y-42745000D02*
X139120000Y-43495000D01*
X137620000Y-42745000D02*
X131620000Y-42745000D01*
X128020000Y-42445000D02*
X128020000Y-43695000D01*
X130120000Y-42745000D02*
X128320000Y-42745000D01*
X128320000Y-43495000D02*
X130120000Y-43495000D01*
X140930000Y-42735000D02*
X128310000Y-42735000D01*
X137620000Y-43495000D02*
X137620000Y-42745000D01*
X140930000Y-48705000D02*
X140930000Y-42735000D01*
X139120000Y-43495000D02*
X140920000Y-43495000D01*
X140920000Y-44995000D02*
X140170000Y-44995000D01*
X140920000Y-43495000D02*
X140920000Y-42745000D01*
X128310000Y-42735000D02*
X128310000Y-48705000D01*
X128310000Y-48705000D02*
X140930000Y-48705000D01*
D11*
%TO.C,U3*%
X124460000Y-53340000D02*
X124460000Y-104140000D01*
X149860000Y-104140000D02*
X149860000Y-53340000D01*
X149860000Y-53340000D02*
X124460000Y-53340000D01*
X124460000Y-104140000D02*
X149860000Y-104140000D01*
D12*
%TO.C,A1*%
X129530000Y-113030000D02*
X129530000Y-110360000D01*
X126860000Y-110360000D02*
X126860000Y-115440000D01*
X134740000Y-123320000D02*
X124320000Y-123320000D01*
X165090000Y-110360000D02*
X126860000Y-110360000D01*
X165090000Y-113030000D02*
X165090000Y-110360000D01*
X170300000Y-128400000D02*
X170300000Y-110360000D01*
X126860000Y-128400000D02*
X126860000Y-123320000D01*
X124320000Y-115440000D02*
X134740000Y-115440000D01*
X167630000Y-125730000D02*
X167630000Y-128400000D01*
X124320000Y-123320000D02*
X124320000Y-115440000D01*
X170300000Y-110360000D02*
X167630000Y-110360000D01*
X165090000Y-113030000D02*
X167630000Y-113030000D01*
X167630000Y-125730000D02*
X129530000Y-125730000D01*
X129530000Y-125730000D02*
X129530000Y-128400000D01*
X167630000Y-113030000D02*
X167630000Y-110360000D01*
X165090000Y-113030000D02*
X129530000Y-113030000D01*
X134740000Y-115440000D02*
X134740000Y-123320000D01*
X126860000Y-128400000D02*
X170300000Y-128400000D01*
%TD*%
%LPC*%
D13*
%TO.C,U1*%
X112767500Y-69105000D03*
D14*
X107687500Y-69105000D03*
X120387500Y-89425000D03*
X110227500Y-89425000D03*
X100067500Y-89425000D03*
X100067500Y-69105000D03*
%TD*%
D15*
%TO.C,J3*%
X64050000Y-57222500D03*
D16*
X64050000Y-61182500D03*
X64050000Y-65142500D03*
%TD*%
D13*
%TO.C,U4*%
X85817500Y-68580000D03*
D14*
X80737500Y-68580000D03*
X93437500Y-88900000D03*
X83277500Y-88900000D03*
X73117500Y-88900000D03*
X73117500Y-68580000D03*
%TD*%
D17*
%TO.C,J2*%
X96250000Y-47195000D03*
D18*
X97850000Y-45195000D03*
D19*
X100350000Y-45195000D03*
X102850000Y-45195000D03*
X105350000Y-45195000D03*
%TD*%
D13*
%TO.C,U2*%
X166650000Y-68580000D03*
D14*
X161570000Y-68580000D03*
X174270000Y-88900000D03*
X164110000Y-88900000D03*
X153950000Y-88900000D03*
X153950000Y-68580000D03*
%TD*%
D15*
%TO.C,J4*%
X63500000Y-95100000D03*
D16*
X63500000Y-99060000D03*
X63500000Y-103020000D03*
%TD*%
D17*
%TO.C,J1*%
X129270000Y-47195000D03*
D18*
X130870000Y-45195000D03*
D19*
X133370000Y-45195000D03*
X135870000Y-45195000D03*
X138370000Y-45195000D03*
%TD*%
D13*
%TO.C,U3*%
X139700000Y-68580000D03*
D14*
X134620000Y-68580000D03*
X147320000Y-88900000D03*
X137160000Y-88900000D03*
X127000000Y-88900000D03*
X127000000Y-68580000D03*
%TD*%
D20*
%TO.C,A1*%
X166360000Y-111760000D03*
D21*
X163820000Y-111760000D03*
X161280000Y-111760000D03*
X158740000Y-111760000D03*
X156200000Y-111760000D03*
X153660000Y-111760000D03*
X151120000Y-111760000D03*
X148580000Y-111760000D03*
X146040000Y-111760000D03*
X143500000Y-111760000D03*
X140960000Y-111760000D03*
X138420000Y-111760000D03*
X135880000Y-111760000D03*
X133340000Y-111760000D03*
X130800000Y-111760000D03*
X130800000Y-127000000D03*
X133340000Y-127000000D03*
X135880000Y-127000000D03*
X138420000Y-127000000D03*
X140960000Y-127000000D03*
X143500000Y-127000000D03*
X146040000Y-127000000D03*
X148580000Y-127000000D03*
X151120000Y-127000000D03*
X153660000Y-127000000D03*
X156200000Y-127000000D03*
X158740000Y-127000000D03*
X161280000Y-127000000D03*
X163820000Y-127000000D03*
X166360000Y-127000000D03*
%TD*%
M02*
