%TF.GenerationSoftware,KiCad,Pcbnew,(6.0.11)*%
%TF.CreationDate,2023-02-28T23:19:18-08:00*%
%TF.ProjectId,kiCad_LED_project,6b694361-645f-44c4-9544-5f70726f6a65,rev?*%
%TF.SameCoordinates,Original*%
%TF.FileFunction,Legend,Bot*%
%TF.FilePolarity,Positive*%
%FSLAX46Y46*%
G04 Gerber Fmt 4.6, Leading zero omitted, Abs format (unit mm)*
G04 Created by KiCad (PCBNEW (6.0.11)) date 2023-02-28 23:19:18*
%MOMM*%
%LPD*%
G01*
G04 APERTURE LIST*
G04 Aperture macros list*
%AMRoundRect*
0 Rectangle with rounded corners*
0 $1 Rounding radius*
0 $2 $3 $4 $5 $6 $7 $8 $9 X,Y pos of 4 corners*
0 Add a 4 corners polygon primitive as box body*
4,1,4,$2,$3,$4,$5,$6,$7,$8,$9,$2,$3,0*
0 Add four circle primitives for the rounded corners*
1,1,$1+$1,$2,$3*
1,1,$1+$1,$4,$5*
1,1,$1+$1,$6,$7*
1,1,$1+$1,$8,$9*
0 Add four rect primitives between the rounded corners*
20,1,$1+$1,$2,$3,$4,$5,0*
20,1,$1+$1,$4,$5,$6,$7,0*
20,1,$1+$1,$6,$7,$8,$9,0*
20,1,$1+$1,$8,$9,$2,$3,0*%
G04 Aperture macros list end*
%ADD10R,2.390000X2.390000*%
%ADD11C,2.390000*%
%ADD12RoundRect,0.250001X-1.099999X1.099999X-1.099999X-1.099999X1.099999X-1.099999X1.099999X1.099999X0*%
%ADD13C,2.700000*%
%ADD14C,1.200000*%
%ADD15RoundRect,0.250000X-0.600000X-0.725000X0.600000X-0.725000X0.600000X0.725000X-0.600000X0.725000X0*%
%ADD16O,1.700000X1.950000*%
%ADD17R,1.600000X1.600000*%
%ADD18O,1.600000X1.600000*%
G04 APERTURE END LIST*
%LPC*%
D10*
%TO.C,U1*%
X112767500Y-69105000D03*
D11*
X107687500Y-69105000D03*
X120387500Y-89425000D03*
X110227500Y-89425000D03*
X100067500Y-89425000D03*
X100067500Y-69105000D03*
%TD*%
D12*
%TO.C,J3*%
X64050000Y-57222500D03*
D13*
X64050000Y-61182500D03*
X64050000Y-65142500D03*
%TD*%
D10*
%TO.C,U4*%
X85817500Y-68580000D03*
D11*
X80737500Y-68580000D03*
X93437500Y-88900000D03*
X83277500Y-88900000D03*
X73117500Y-88900000D03*
X73117500Y-68580000D03*
%TD*%
D14*
%TO.C,J2*%
X96250000Y-47195000D03*
D15*
X97850000Y-45195000D03*
D16*
X100350000Y-45195000D03*
X102850000Y-45195000D03*
X105350000Y-45195000D03*
%TD*%
D10*
%TO.C,U2*%
X166650000Y-68580000D03*
D11*
X161570000Y-68580000D03*
X174270000Y-88900000D03*
X164110000Y-88900000D03*
X153950000Y-88900000D03*
X153950000Y-68580000D03*
%TD*%
D12*
%TO.C,J4*%
X63500000Y-95100000D03*
D13*
X63500000Y-99060000D03*
X63500000Y-103020000D03*
%TD*%
D14*
%TO.C,J1*%
X129270000Y-47195000D03*
D15*
X130870000Y-45195000D03*
D16*
X133370000Y-45195000D03*
X135870000Y-45195000D03*
X138370000Y-45195000D03*
%TD*%
D10*
%TO.C,U3*%
X139700000Y-68580000D03*
D11*
X134620000Y-68580000D03*
X147320000Y-88900000D03*
X137160000Y-88900000D03*
X127000000Y-88900000D03*
X127000000Y-68580000D03*
%TD*%
D17*
%TO.C,A1*%
X166360000Y-111760000D03*
D18*
X163820000Y-111760000D03*
X161280000Y-111760000D03*
X158740000Y-111760000D03*
X156200000Y-111760000D03*
X153660000Y-111760000D03*
X151120000Y-111760000D03*
X148580000Y-111760000D03*
X146040000Y-111760000D03*
X143500000Y-111760000D03*
X140960000Y-111760000D03*
X138420000Y-111760000D03*
X135880000Y-111760000D03*
X133340000Y-111760000D03*
X130800000Y-111760000D03*
X130800000Y-127000000D03*
X133340000Y-127000000D03*
X135880000Y-127000000D03*
X138420000Y-127000000D03*
X140960000Y-127000000D03*
X143500000Y-127000000D03*
X146040000Y-127000000D03*
X148580000Y-127000000D03*
X151120000Y-127000000D03*
X153660000Y-127000000D03*
X156200000Y-127000000D03*
X158740000Y-127000000D03*
X161280000Y-127000000D03*
X163820000Y-127000000D03*
X166360000Y-127000000D03*
%TD*%
M02*
