M48
; DRILL file {KiCad (6.0.11)} date Tue Feb 28 23:21:54 2023
; FORMAT={-:-/ absolute / metric / decimal}
; #@! TF.CreationDate,2023-02-28T23:21:54-08:00
; #@! TF.GenerationSoftware,Kicad,Pcbnew,(6.0.11)
; #@! TF.FileFunction,Plated,1,2,PTH
FMAT,2
METRIC
; #@! TA.AperFunction,Plated,PTH,ComponentDrill
T1C0.950
; #@! TA.AperFunction,Plated,PTH,ComponentDrill
T2C1.000
; #@! TA.AperFunction,Plated,PTH,ComponentDrill
T3C1.590
; #@! TA.AperFunction,Plated,PTH,ComponentDrill
T4C1.700
%
G90
G05
T1
X97.85Y-45.195
X100.35Y-45.195
X102.85Y-45.195
X105.35Y-45.195
X130.87Y-45.195
X133.37Y-45.195
X135.87Y-45.195
X138.37Y-45.195
T2
X130.8Y-111.76
X130.8Y-127.0
X133.34Y-111.76
X133.34Y-127.0
X135.88Y-111.76
X135.88Y-127.0
X138.42Y-111.76
X138.42Y-127.0
X140.96Y-111.76
X140.96Y-127.0
X143.5Y-111.76
X143.5Y-127.0
X146.04Y-111.76
X146.04Y-127.0
X148.58Y-111.76
X148.58Y-127.0
X151.12Y-111.76
X151.12Y-127.0
X153.66Y-111.76
X153.66Y-127.0
X156.2Y-111.76
X156.2Y-127.0
X158.74Y-111.76
X158.74Y-127.0
X161.28Y-111.76
X161.28Y-127.0
X163.82Y-111.76
X163.82Y-127.0
X166.36Y-111.76
X166.36Y-127.0
T3
X73.117Y-68.58
X73.117Y-88.9
X80.737Y-68.58
X83.277Y-88.9
X85.817Y-68.58
X93.438Y-88.9
X100.067Y-69.105
X100.067Y-89.425
X107.688Y-69.105
X110.227Y-89.425
X112.767Y-69.105
X120.387Y-89.425
X127.0Y-68.58
X127.0Y-88.9
X134.62Y-68.58
X137.16Y-88.9
X139.7Y-68.58
X147.32Y-88.9
X153.95Y-68.58
X153.95Y-88.9
X161.57Y-68.58
X164.11Y-88.9
X166.65Y-68.58
X174.27Y-88.9
T4
X63.5Y-95.1
X63.5Y-99.06
X63.5Y-103.02
X64.05Y-57.222
X64.05Y-61.182
X64.05Y-65.142
T0
M30
