%TF.GenerationSoftware,KiCad,Pcbnew,7.0.1*%
%TF.CreationDate,2023-04-06T11:57:59-07:00*%
%TF.ProjectId,rps01,72707330-312e-46b6-9963-61645f706362,0*%
%TF.SameCoordinates,Original*%
%TF.FileFunction,Drillmap*%
%TF.FilePolarity,Positive*%
%FSLAX45Y45*%
G04 Gerber Fmt 4.5, Leading zero omitted, Abs format (unit mm)*
G04 Created by KiCad (PCBNEW 7.0.1) date 2023-04-06 11:57:59*
%MOMM*%
%LPD*%
G01*
G04 APERTURE LIST*
%ADD10C,0.200000*%
G04 APERTURE END LIST*
D10*
X1642619Y-10165524D02*
X1642619Y-9965524D01*
X1642619Y-9965524D02*
X1690238Y-9965524D01*
X1690238Y-9965524D02*
X1718809Y-9975048D01*
X1718809Y-9975048D02*
X1737857Y-9994095D01*
X1737857Y-9994095D02*
X1747381Y-10013143D01*
X1747381Y-10013143D02*
X1756905Y-10051238D01*
X1756905Y-10051238D02*
X1756905Y-10079810D01*
X1756905Y-10079810D02*
X1747381Y-10117905D01*
X1747381Y-10117905D02*
X1737857Y-10136952D01*
X1737857Y-10136952D02*
X1718809Y-10156000D01*
X1718809Y-10156000D02*
X1690238Y-10165524D01*
X1690238Y-10165524D02*
X1642619Y-10165524D01*
X1842619Y-10165524D02*
X1842619Y-10032190D01*
X1842619Y-10070286D02*
X1852143Y-10051238D01*
X1852143Y-10051238D02*
X1861667Y-10041714D01*
X1861667Y-10041714D02*
X1880714Y-10032190D01*
X1880714Y-10032190D02*
X1899762Y-10032190D01*
X1966428Y-10165524D02*
X1966428Y-10032190D01*
X1966428Y-9965524D02*
X1956905Y-9975048D01*
X1956905Y-9975048D02*
X1966428Y-9984571D01*
X1966428Y-9984571D02*
X1975952Y-9975048D01*
X1975952Y-9975048D02*
X1966428Y-9965524D01*
X1966428Y-9965524D02*
X1966428Y-9984571D01*
X2090238Y-10165524D02*
X2071190Y-10156000D01*
X2071190Y-10156000D02*
X2061667Y-10136952D01*
X2061667Y-10136952D02*
X2061667Y-9965524D01*
X2195000Y-10165524D02*
X2175952Y-10156000D01*
X2175952Y-10156000D02*
X2166429Y-10136952D01*
X2166429Y-10136952D02*
X2166429Y-9965524D01*
X2423571Y-10165524D02*
X2423571Y-9965524D01*
X2423571Y-9965524D02*
X2490238Y-10108381D01*
X2490238Y-10108381D02*
X2556905Y-9965524D01*
X2556905Y-9965524D02*
X2556905Y-10165524D01*
X2737857Y-10165524D02*
X2737857Y-10060762D01*
X2737857Y-10060762D02*
X2728333Y-10041714D01*
X2728333Y-10041714D02*
X2709286Y-10032190D01*
X2709286Y-10032190D02*
X2671190Y-10032190D01*
X2671190Y-10032190D02*
X2652143Y-10041714D01*
X2737857Y-10156000D02*
X2718810Y-10165524D01*
X2718810Y-10165524D02*
X2671190Y-10165524D01*
X2671190Y-10165524D02*
X2652143Y-10156000D01*
X2652143Y-10156000D02*
X2642619Y-10136952D01*
X2642619Y-10136952D02*
X2642619Y-10117905D01*
X2642619Y-10117905D02*
X2652143Y-10098857D01*
X2652143Y-10098857D02*
X2671190Y-10089333D01*
X2671190Y-10089333D02*
X2718810Y-10089333D01*
X2718810Y-10089333D02*
X2737857Y-10079810D01*
X2833095Y-10032190D02*
X2833095Y-10232190D01*
X2833095Y-10041714D02*
X2852143Y-10032190D01*
X2852143Y-10032190D02*
X2890238Y-10032190D01*
X2890238Y-10032190D02*
X2909286Y-10041714D01*
X2909286Y-10041714D02*
X2918809Y-10051238D01*
X2918809Y-10051238D02*
X2928333Y-10070286D01*
X2928333Y-10070286D02*
X2928333Y-10127429D01*
X2928333Y-10127429D02*
X2918809Y-10146476D01*
X2918809Y-10146476D02*
X2909286Y-10156000D01*
X2909286Y-10156000D02*
X2890238Y-10165524D01*
X2890238Y-10165524D02*
X2852143Y-10165524D01*
X2852143Y-10165524D02*
X2833095Y-10156000D01*
X3014048Y-10146476D02*
X3023571Y-10156000D01*
X3023571Y-10156000D02*
X3014048Y-10165524D01*
X3014048Y-10165524D02*
X3004524Y-10156000D01*
X3004524Y-10156000D02*
X3014048Y-10146476D01*
X3014048Y-10146476D02*
X3014048Y-10165524D01*
X3014048Y-10041714D02*
X3023571Y-10051238D01*
X3023571Y-10051238D02*
X3014048Y-10060762D01*
X3014048Y-10060762D02*
X3004524Y-10051238D01*
X3004524Y-10051238D02*
X3014048Y-10041714D01*
X3014048Y-10041714D02*
X3014048Y-10060762D01*
M02*
