G04 #@! TF.GenerationSoftware,KiCad,Pcbnew,7.0.1*
G04 #@! TF.CreationDate,2023-04-06T11:57:38-07:00*
G04 #@! TF.ProjectId,rps01,72707330-312e-46b6-9963-61645f706362,0*
G04 #@! TF.SameCoordinates,Original*
G04 #@! TF.FileFunction,Copper,L2,Bot*
G04 #@! TF.FilePolarity,Positive*
%FSLAX46Y46*%
G04 Gerber Fmt 4.6, Leading zero omitted, Abs format (unit mm)*
G04 Created by KiCad (PCBNEW 7.0.1) date 2023-04-06 11:57:38*
%MOMM*%
%LPD*%
G01*
G04 APERTURE LIST*
G04 Aperture macros list*
%AMRoundRect*
0 Rectangle with rounded corners*
0 $1 Rounding radius*
0 $2 $3 $4 $5 $6 $7 $8 $9 X,Y pos of 4 corners*
0 Add a 4 corners polygon primitive as box body*
4,1,4,$2,$3,$4,$5,$6,$7,$8,$9,$2,$3,0*
0 Add four circle primitives for the rounded corners*
1,1,$1+$1,$2,$3*
1,1,$1+$1,$4,$5*
1,1,$1+$1,$6,$7*
1,1,$1+$1,$8,$9*
0 Add four rect primitives between the rounded corners*
20,1,$1+$1,$2,$3,$4,$5,0*
20,1,$1+$1,$4,$5,$6,$7,0*
20,1,$1+$1,$6,$7,$8,$9,0*
20,1,$1+$1,$8,$9,$2,$3,0*%
G04 Aperture macros list end*
G04 #@! TA.AperFunction,ComponentPad*
%ADD10RoundRect,1.900000X1.900000X-1.900000X1.900000X1.900000X-1.900000X1.900000X-1.900000X-1.900000X0*%
G04 #@! TD*
G04 #@! TA.AperFunction,ComponentPad*
%ADD11C,7.600000*%
G04 #@! TD*
G04 #@! TA.AperFunction,ComponentPad*
%ADD12RoundRect,1.900000X-1.900000X1.900000X-1.900000X-1.900000X1.900000X-1.900000X1.900000X1.900000X0*%
G04 #@! TD*
G04 #@! TA.AperFunction,ComponentPad*
%ADD13RoundRect,1.900000X-1.900000X-1.900000X1.900000X-1.900000X1.900000X1.900000X-1.900000X1.900000X0*%
G04 #@! TD*
G04 #@! TA.AperFunction,SMDPad,CuDef*
%ADD14R,3.251200X0.812800*%
G04 #@! TD*
G04 #@! TA.AperFunction,SMDPad,CuDef*
%ADD15R,8.305800X7.874000*%
G04 #@! TD*
G04 #@! TA.AperFunction,ViaPad*
%ADD16C,0.800000*%
G04 #@! TD*
G04 #@! TA.AperFunction,Conductor*
%ADD17C,0.250000*%
G04 #@! TD*
G04 APERTURE END LIST*
D10*
X22750000Y-88000000D03*
D11*
X22750000Y-77000000D03*
D12*
X22750000Y-28500000D03*
D11*
X22750000Y-39500000D03*
D13*
X47840000Y-55880000D03*
D11*
X58840000Y-55880000D03*
D14*
X45172200Y-41460000D03*
X45172200Y-44000000D03*
X45172200Y-46540000D03*
D15*
X35050300Y-44000000D03*
D14*
X45172200Y-30480000D03*
X45172200Y-33020000D03*
X45172200Y-35560000D03*
D15*
X35050300Y-33020000D03*
D14*
X45172200Y-68580000D03*
X45172200Y-71120000D03*
X45172200Y-73660000D03*
D15*
X35050300Y-71120000D03*
D14*
X45172200Y-81460000D03*
X45172200Y-84000000D03*
X45172200Y-86540000D03*
D15*
X35050300Y-84000000D03*
D16*
X15500000Y-56250000D03*
X35500000Y-56250000D03*
X32750000Y-30750000D03*
X33000000Y-46000000D03*
X37750000Y-35750000D03*
X32500000Y-35250000D03*
X37750000Y-30750000D03*
X35250000Y-33000000D03*
X35000000Y-44000000D03*
X33000000Y-42250000D03*
X37250000Y-46000000D03*
X37250000Y-42250000D03*
X35250000Y-60250000D03*
X35000000Y-71250000D03*
X32250000Y-81000000D03*
X32250000Y-68500000D03*
X37750000Y-68500000D03*
X32000000Y-86500000D03*
X37750000Y-73750000D03*
X32000000Y-73750000D03*
X37500000Y-86500000D03*
X38250000Y-80750000D03*
X35000000Y-84000000D03*
X45172200Y-81460000D03*
X45172200Y-68580000D03*
X45172200Y-41460000D03*
X45172200Y-30480000D03*
D17*
X47470000Y-56250000D02*
X47840000Y-55880000D01*
X35500000Y-56250000D02*
X47470000Y-56250000D01*
X45172200Y-44000000D02*
X35050300Y-44000000D01*
X45681900Y-33020000D02*
X35560000Y-33020000D01*
X45172200Y-84000000D02*
X35050300Y-84000000D01*
X45681900Y-71120000D02*
X35560000Y-71120000D01*
G04 #@! TA.AperFunction,Conductor*
G36*
X34590707Y-56524220D02*
G01*
X34632422Y-56554528D01*
X34658203Y-56599182D01*
X34665472Y-56621556D01*
X34760957Y-56786941D01*
X34760960Y-56786944D01*
X34888747Y-56928866D01*
X34911642Y-56945500D01*
X35043248Y-57041118D01*
X35217714Y-57118795D01*
X35404511Y-57158500D01*
X35404513Y-57158500D01*
X35595487Y-57158500D01*
X35595489Y-57158500D01*
X35782285Y-57118795D01*
X35782286Y-57118794D01*
X35782288Y-57118794D01*
X35956752Y-57041118D01*
X36111253Y-56928866D01*
X36115158Y-56924528D01*
X36156873Y-56894221D01*
X36207309Y-56883500D01*
X40542500Y-56883500D01*
X40604500Y-56900113D01*
X40649887Y-56945500D01*
X40666500Y-57007500D01*
X40666500Y-68178600D01*
X40666500Y-70362500D01*
X40683997Y-70495405D01*
X40700610Y-70557405D01*
X40740561Y-70653854D01*
X40750000Y-70701307D01*
X40750000Y-71538693D01*
X40740561Y-71586146D01*
X40700611Y-71682593D01*
X40683996Y-71744598D01*
X40666500Y-71877499D01*
X40666500Y-71877500D01*
X40666500Y-81058600D01*
X40666500Y-83242500D01*
X40683997Y-83375405D01*
X40700610Y-83437405D01*
X40740561Y-83533854D01*
X40750000Y-83581307D01*
X40750000Y-84418693D01*
X40740561Y-84466146D01*
X40700611Y-84562593D01*
X40683996Y-84624598D01*
X40667339Y-84751124D01*
X40666500Y-84757500D01*
X40666500Y-89146000D01*
X40683997Y-89278905D01*
X40700610Y-89340905D01*
X40740561Y-89437354D01*
X40750000Y-89484807D01*
X40750000Y-90626000D01*
X40733387Y-90688000D01*
X40688000Y-90733387D01*
X40626000Y-90750000D01*
X28874000Y-90750000D01*
X28812000Y-90733387D01*
X28766613Y-90688000D01*
X28750000Y-90626000D01*
X28750000Y-82250000D01*
X17124000Y-82250000D01*
X17062000Y-82233387D01*
X17016613Y-82188000D01*
X17000000Y-82126000D01*
X17000000Y-56637500D01*
X17016613Y-56575500D01*
X17062000Y-56530113D01*
X17124000Y-56513500D01*
X34540272Y-56513500D01*
X34590707Y-56524220D01*
G37*
G04 #@! TD.AperFunction*
G04 #@! TA.AperFunction,Conductor*
G36*
X53278000Y-27586613D02*
G01*
X53323387Y-27632000D01*
X53340000Y-27694000D01*
X53340000Y-89146000D01*
X53323387Y-89208000D01*
X53278000Y-89253387D01*
X53216000Y-89270000D01*
X41304000Y-89270000D01*
X41242000Y-89253387D01*
X41196613Y-89208000D01*
X41180000Y-89146000D01*
X41180000Y-84757500D01*
X41196613Y-84695500D01*
X41242000Y-84650113D01*
X41304000Y-84633500D01*
X43019340Y-84633500D01*
X43074845Y-84646616D01*
X43118607Y-84683190D01*
X43183338Y-84769661D01*
X43300396Y-84857289D01*
X43437394Y-84908388D01*
X43437397Y-84908388D01*
X43437399Y-84908389D01*
X43497962Y-84914900D01*
X46846434Y-84914900D01*
X46846438Y-84914900D01*
X46907001Y-84908389D01*
X46907003Y-84908388D01*
X46907005Y-84908388D01*
X46984924Y-84879324D01*
X47044004Y-84857289D01*
X47161061Y-84769661D01*
X47248689Y-84652604D01*
X47299789Y-84515601D01*
X47306300Y-84455038D01*
X47306300Y-83544962D01*
X47299789Y-83484399D01*
X47299788Y-83484397D01*
X47299788Y-83484394D01*
X47248689Y-83347396D01*
X47161061Y-83230338D01*
X47044003Y-83142710D01*
X46907005Y-83091611D01*
X46876719Y-83088355D01*
X46846438Y-83085100D01*
X43497962Y-83085100D01*
X43471045Y-83087993D01*
X43437394Y-83091611D01*
X43300396Y-83142710D01*
X43183338Y-83230338D01*
X43118607Y-83316810D01*
X43074845Y-83353384D01*
X43019340Y-83366500D01*
X41304000Y-83366500D01*
X41242000Y-83349887D01*
X41196613Y-83304500D01*
X41180000Y-83242500D01*
X41180000Y-81915034D01*
X43038100Y-81915034D01*
X43044611Y-81975605D01*
X43095710Y-82112603D01*
X43183338Y-82229661D01*
X43300396Y-82317289D01*
X43437394Y-82368388D01*
X43437397Y-82368388D01*
X43437399Y-82368389D01*
X43497962Y-82374900D01*
X46846434Y-82374900D01*
X46846438Y-82374900D01*
X46907001Y-82368389D01*
X46907003Y-82368388D01*
X46907005Y-82368388D01*
X46984924Y-82339324D01*
X47044004Y-82317289D01*
X47161061Y-82229661D01*
X47248689Y-82112604D01*
X47299789Y-81975601D01*
X47306300Y-81915038D01*
X47306300Y-81004962D01*
X47299789Y-80944399D01*
X47299788Y-80944397D01*
X47299788Y-80944394D01*
X47248689Y-80807396D01*
X47161061Y-80690338D01*
X47044003Y-80602710D01*
X46907005Y-80551611D01*
X46876719Y-80548355D01*
X46846438Y-80545100D01*
X43497962Y-80545100D01*
X43471045Y-80547993D01*
X43437394Y-80551611D01*
X43300396Y-80602710D01*
X43183338Y-80690338D01*
X43095710Y-80807396D01*
X43044611Y-80944394D01*
X43038100Y-81004966D01*
X43038100Y-81915034D01*
X41180000Y-81915034D01*
X41180000Y-71877500D01*
X41196613Y-71815500D01*
X41242000Y-71770113D01*
X41304000Y-71753500D01*
X43019340Y-71753500D01*
X43074845Y-71766616D01*
X43118607Y-71803190D01*
X43183338Y-71889661D01*
X43300396Y-71977289D01*
X43437394Y-72028388D01*
X43437397Y-72028388D01*
X43437399Y-72028389D01*
X43497962Y-72034900D01*
X46846434Y-72034900D01*
X46846438Y-72034900D01*
X46907001Y-72028389D01*
X46907003Y-72028388D01*
X46907005Y-72028388D01*
X46984924Y-71999324D01*
X47044004Y-71977289D01*
X47161061Y-71889661D01*
X47248689Y-71772604D01*
X47299789Y-71635601D01*
X47306300Y-71575038D01*
X47306300Y-70664962D01*
X47299789Y-70604399D01*
X47299788Y-70604397D01*
X47299788Y-70604394D01*
X47248689Y-70467396D01*
X47161061Y-70350338D01*
X47044003Y-70262710D01*
X46907005Y-70211611D01*
X46876719Y-70208355D01*
X46846438Y-70205100D01*
X43497962Y-70205100D01*
X43471045Y-70207993D01*
X43437394Y-70211611D01*
X43300396Y-70262710D01*
X43183338Y-70350338D01*
X43118607Y-70436810D01*
X43074845Y-70473384D01*
X43019340Y-70486500D01*
X41304000Y-70486500D01*
X41242000Y-70469887D01*
X41196613Y-70424500D01*
X41180000Y-70362500D01*
X41180000Y-69035034D01*
X43038100Y-69035034D01*
X43044611Y-69095605D01*
X43095710Y-69232603D01*
X43183338Y-69349661D01*
X43300396Y-69437289D01*
X43437394Y-69488388D01*
X43437397Y-69488388D01*
X43437399Y-69488389D01*
X43497962Y-69494900D01*
X46846434Y-69494900D01*
X46846438Y-69494900D01*
X46907001Y-69488389D01*
X46907003Y-69488388D01*
X46907005Y-69488388D01*
X46984924Y-69459324D01*
X47044004Y-69437289D01*
X47161061Y-69349661D01*
X47248689Y-69232604D01*
X47299789Y-69095601D01*
X47306300Y-69035038D01*
X47306300Y-68124962D01*
X47299789Y-68064399D01*
X47299788Y-68064397D01*
X47299788Y-68064394D01*
X47248689Y-67927396D01*
X47161061Y-67810338D01*
X47044003Y-67722710D01*
X46907005Y-67671611D01*
X46876719Y-67668355D01*
X46846438Y-67665100D01*
X43497962Y-67665100D01*
X43471045Y-67667993D01*
X43437394Y-67671611D01*
X43300396Y-67722710D01*
X43183338Y-67810338D01*
X43095710Y-67927396D01*
X43044611Y-68064394D01*
X43038100Y-68124966D01*
X43038100Y-69035034D01*
X41180000Y-69035034D01*
X41180000Y-44757500D01*
X41196613Y-44695500D01*
X41242000Y-44650113D01*
X41304000Y-44633500D01*
X43019340Y-44633500D01*
X43074845Y-44646616D01*
X43118607Y-44683190D01*
X43183338Y-44769661D01*
X43300396Y-44857289D01*
X43437394Y-44908388D01*
X43437397Y-44908388D01*
X43437399Y-44908389D01*
X43497962Y-44914900D01*
X46846434Y-44914900D01*
X46846438Y-44914900D01*
X46907001Y-44908389D01*
X46907003Y-44908388D01*
X46907005Y-44908388D01*
X46984924Y-44879324D01*
X47044004Y-44857289D01*
X47161061Y-44769661D01*
X47248689Y-44652604D01*
X47299789Y-44515601D01*
X47306300Y-44455038D01*
X47306300Y-43544962D01*
X47299789Y-43484399D01*
X47299788Y-43484397D01*
X47299788Y-43484394D01*
X47248689Y-43347396D01*
X47161061Y-43230338D01*
X47044003Y-43142710D01*
X46907005Y-43091611D01*
X46876719Y-43088355D01*
X46846438Y-43085100D01*
X43497962Y-43085100D01*
X43471045Y-43087993D01*
X43437394Y-43091611D01*
X43300396Y-43142710D01*
X43183338Y-43230338D01*
X43118607Y-43316810D01*
X43074845Y-43353384D01*
X43019340Y-43366500D01*
X41304000Y-43366500D01*
X41242000Y-43349887D01*
X41196613Y-43304500D01*
X41180000Y-43242500D01*
X41180000Y-41915034D01*
X43038100Y-41915034D01*
X43044611Y-41975605D01*
X43095710Y-42112603D01*
X43183338Y-42229661D01*
X43300396Y-42317289D01*
X43437394Y-42368388D01*
X43437397Y-42368388D01*
X43437399Y-42368389D01*
X43497962Y-42374900D01*
X46846434Y-42374900D01*
X46846438Y-42374900D01*
X46907001Y-42368389D01*
X46907003Y-42368388D01*
X46907005Y-42368388D01*
X46984924Y-42339324D01*
X47044004Y-42317289D01*
X47161061Y-42229661D01*
X47248689Y-42112604D01*
X47299789Y-41975601D01*
X47306300Y-41915038D01*
X47306300Y-41004962D01*
X47299789Y-40944399D01*
X47299788Y-40944397D01*
X47299788Y-40944394D01*
X47248689Y-40807396D01*
X47161061Y-40690338D01*
X47044003Y-40602710D01*
X46907005Y-40551611D01*
X46876719Y-40548355D01*
X46846438Y-40545100D01*
X43497962Y-40545100D01*
X43471045Y-40547993D01*
X43437394Y-40551611D01*
X43300396Y-40602710D01*
X43183338Y-40690338D01*
X43095710Y-40807396D01*
X43044611Y-40944394D01*
X43038100Y-41004966D01*
X43038100Y-41915034D01*
X41180000Y-41915034D01*
X41180000Y-33777500D01*
X41196613Y-33715500D01*
X41242000Y-33670113D01*
X41304000Y-33653500D01*
X43019340Y-33653500D01*
X43074845Y-33666616D01*
X43118607Y-33703190D01*
X43183338Y-33789661D01*
X43300396Y-33877289D01*
X43437394Y-33928388D01*
X43437397Y-33928388D01*
X43437399Y-33928389D01*
X43497962Y-33934900D01*
X46846434Y-33934900D01*
X46846438Y-33934900D01*
X46907001Y-33928389D01*
X46907003Y-33928388D01*
X46907005Y-33928388D01*
X46984924Y-33899324D01*
X47044004Y-33877289D01*
X47161061Y-33789661D01*
X47248689Y-33672604D01*
X47299789Y-33535601D01*
X47306300Y-33475038D01*
X47306300Y-32564962D01*
X47299789Y-32504399D01*
X47299788Y-32504397D01*
X47299788Y-32504394D01*
X47248689Y-32367396D01*
X47161061Y-32250338D01*
X47044003Y-32162710D01*
X46907005Y-32111611D01*
X46876719Y-32108355D01*
X46846438Y-32105100D01*
X43497962Y-32105100D01*
X43471045Y-32107993D01*
X43437394Y-32111611D01*
X43300396Y-32162710D01*
X43183338Y-32250338D01*
X43118607Y-32336810D01*
X43074845Y-32373384D01*
X43019340Y-32386500D01*
X41304000Y-32386500D01*
X41242000Y-32369887D01*
X41196613Y-32324500D01*
X41180000Y-32262500D01*
X41180000Y-30935034D01*
X43038100Y-30935034D01*
X43044611Y-30995605D01*
X43095710Y-31132603D01*
X43183338Y-31249661D01*
X43300396Y-31337289D01*
X43437394Y-31388388D01*
X43437397Y-31388388D01*
X43437399Y-31388389D01*
X43497962Y-31394900D01*
X46846434Y-31394900D01*
X46846438Y-31394900D01*
X46907001Y-31388389D01*
X46907003Y-31388388D01*
X46907005Y-31388388D01*
X46984924Y-31359324D01*
X47044004Y-31337289D01*
X47161061Y-31249661D01*
X47248689Y-31132604D01*
X47299789Y-30995601D01*
X47306300Y-30935038D01*
X47306300Y-30024962D01*
X47299789Y-29964399D01*
X47299788Y-29964397D01*
X47299788Y-29964394D01*
X47248689Y-29827396D01*
X47161061Y-29710338D01*
X47044003Y-29622710D01*
X46907005Y-29571611D01*
X46876719Y-29568355D01*
X46846438Y-29565100D01*
X43497962Y-29565100D01*
X43471045Y-29567993D01*
X43437394Y-29571611D01*
X43300396Y-29622710D01*
X43183338Y-29710338D01*
X43095710Y-29827396D01*
X43044611Y-29964394D01*
X43038100Y-30024966D01*
X43038100Y-30935034D01*
X41180000Y-30935034D01*
X41180000Y-27694000D01*
X41196613Y-27632000D01*
X41242000Y-27586613D01*
X41304000Y-27570000D01*
X53216000Y-27570000D01*
X53278000Y-27586613D01*
G37*
G04 #@! TD.AperFunction*
G04 #@! TA.AperFunction,Conductor*
G36*
X162995883Y-18489939D02*
G01*
X163036111Y-18516819D01*
X163963181Y-19443888D01*
X163990061Y-19484116D01*
X163999500Y-19531569D01*
X163999500Y-97428431D01*
X163990061Y-97475884D01*
X163963181Y-97516112D01*
X163036111Y-98443181D01*
X162995883Y-98470061D01*
X162948430Y-98479500D01*
X15051569Y-98479500D01*
X15004116Y-98470061D01*
X14963888Y-98443181D01*
X14036819Y-97516111D01*
X14009939Y-97475883D01*
X14000500Y-97428430D01*
X14000500Y-94480000D01*
X16394551Y-94480000D01*
X16414317Y-94731149D01*
X16473126Y-94976110D01*
X16521330Y-95092485D01*
X16569534Y-95208859D01*
X16701164Y-95423659D01*
X16864776Y-95615224D01*
X17056341Y-95778836D01*
X17271141Y-95910466D01*
X17503889Y-96006873D01*
X17748852Y-96065683D01*
X18000000Y-96085449D01*
X18251148Y-96065683D01*
X18496111Y-96006873D01*
X18728859Y-95910466D01*
X18943659Y-95778836D01*
X19135224Y-95615224D01*
X19298836Y-95423659D01*
X19430466Y-95208859D01*
X19526873Y-94976111D01*
X19585683Y-94731148D01*
X19605449Y-94480000D01*
X158394551Y-94480000D01*
X158414317Y-94731149D01*
X158473126Y-94976110D01*
X158521330Y-95092485D01*
X158569534Y-95208859D01*
X158701164Y-95423659D01*
X158864776Y-95615224D01*
X159056341Y-95778836D01*
X159271141Y-95910466D01*
X159503889Y-96006873D01*
X159748852Y-96065683D01*
X160000000Y-96085449D01*
X160251148Y-96065683D01*
X160496111Y-96006873D01*
X160728859Y-95910466D01*
X160943659Y-95778836D01*
X161135224Y-95615224D01*
X161298836Y-95423659D01*
X161430466Y-95208859D01*
X161526873Y-94976111D01*
X161585683Y-94731148D01*
X161605449Y-94480000D01*
X161585683Y-94228852D01*
X161526873Y-93983889D01*
X161430466Y-93751141D01*
X161298836Y-93536341D01*
X161135224Y-93344776D01*
X160943659Y-93181164D01*
X160728859Y-93049534D01*
X160612484Y-93001330D01*
X160496110Y-92953126D01*
X160251149Y-92894317D01*
X160000000Y-92874551D01*
X159748850Y-92894317D01*
X159503889Y-92953126D01*
X159271139Y-93049535D01*
X159056342Y-93181163D01*
X158864776Y-93344776D01*
X158701163Y-93536342D01*
X158569535Y-93751139D01*
X158473126Y-93983889D01*
X158414317Y-94228850D01*
X158394551Y-94480000D01*
X19605449Y-94480000D01*
X19585683Y-94228852D01*
X19526873Y-93983889D01*
X19430466Y-93751141D01*
X19298836Y-93536341D01*
X19135224Y-93344776D01*
X18943659Y-93181164D01*
X18728859Y-93049534D01*
X18612484Y-93001330D01*
X18496110Y-92953126D01*
X18251149Y-92894317D01*
X18000000Y-92874551D01*
X17748850Y-92894317D01*
X17503889Y-92953126D01*
X17271139Y-93049535D01*
X17056342Y-93181163D01*
X16864776Y-93344776D01*
X16701163Y-93536342D01*
X16569535Y-93751139D01*
X16473126Y-93983889D01*
X16414317Y-94228850D01*
X16394551Y-94480000D01*
X14000500Y-94480000D01*
X14000500Y-82126001D01*
X16486500Y-82126001D01*
X16503996Y-82258901D01*
X16520611Y-82320909D01*
X16571908Y-82444751D01*
X16653513Y-82551099D01*
X16698900Y-82596486D01*
X16805248Y-82678091D01*
X16929090Y-82729388D01*
X16929095Y-82729390D01*
X16991095Y-82746003D01*
X17090773Y-82759125D01*
X17123999Y-82763500D01*
X17124000Y-82763500D01*
X28112500Y-82763500D01*
X28174500Y-82780113D01*
X28219887Y-82825500D01*
X28236500Y-82887500D01*
X28236500Y-90626001D01*
X28253996Y-90758901D01*
X28270611Y-90820909D01*
X28321908Y-90944751D01*
X28403513Y-91051099D01*
X28448900Y-91096486D01*
X28555248Y-91178091D01*
X28679090Y-91229388D01*
X28679095Y-91229390D01*
X28741095Y-91246003D01*
X28840773Y-91259125D01*
X28873999Y-91263500D01*
X28874000Y-91263500D01*
X40626000Y-91263500D01*
X40626001Y-91263500D01*
X40652580Y-91260000D01*
X40758905Y-91246003D01*
X40820905Y-91229390D01*
X40944751Y-91178091D01*
X41051099Y-91096486D01*
X41096486Y-91051099D01*
X41178091Y-90944751D01*
X41229390Y-90820905D01*
X41246003Y-90758905D01*
X41263500Y-90626000D01*
X41263500Y-89907500D01*
X41280113Y-89845500D01*
X41325500Y-89800113D01*
X41387500Y-89783500D01*
X53216001Y-89783500D01*
X53256501Y-89778168D01*
X53348905Y-89766003D01*
X53410905Y-89749390D01*
X53534751Y-89698091D01*
X53641099Y-89616486D01*
X53686486Y-89571099D01*
X53768091Y-89464751D01*
X53819390Y-89340905D01*
X53836003Y-89278905D01*
X53853500Y-89146000D01*
X53853500Y-27694000D01*
X53836003Y-27561095D01*
X53819390Y-27499095D01*
X53768091Y-27375249D01*
X53768091Y-27375248D01*
X53686486Y-27268900D01*
X53641099Y-27223513D01*
X53534751Y-27141908D01*
X53410909Y-27090611D01*
X53348901Y-27073996D01*
X53216001Y-27056500D01*
X53216000Y-27056500D01*
X41537921Y-27056500D01*
X41483320Y-27043832D01*
X41439876Y-27008416D01*
X41416465Y-26957488D01*
X41414759Y-26949196D01*
X41395135Y-26891391D01*
X41339545Y-26776787D01*
X41339544Y-26776786D01*
X41339544Y-26776785D01*
X41293188Y-26721785D01*
X41257457Y-26679391D01*
X41212630Y-26637953D01*
X41212626Y-26637950D01*
X41109085Y-26563753D01*
X40990458Y-26517323D01*
X40931298Y-26502300D01*
X40931295Y-26502299D01*
X40931293Y-26502299D01*
X40804897Y-26486500D01*
X28624000Y-26486500D01*
X28623999Y-26486500D01*
X28491098Y-26503996D01*
X28429090Y-26520611D01*
X28305248Y-26571908D01*
X28198900Y-26653513D01*
X28153513Y-26698900D01*
X28071908Y-26805248D01*
X28020611Y-26929090D01*
X28003996Y-26991098D01*
X27986500Y-27123999D01*
X27986500Y-33862500D01*
X27969887Y-33924500D01*
X27924500Y-33969887D01*
X27862500Y-33986500D01*
X17123999Y-33986500D01*
X16991098Y-34003996D01*
X16929090Y-34020611D01*
X16805248Y-34071908D01*
X16698900Y-34153513D01*
X16653513Y-34198900D01*
X16571908Y-34305248D01*
X16520611Y-34429090D01*
X16503996Y-34491098D01*
X16486500Y-34623999D01*
X16486500Y-55876001D01*
X16503996Y-56008901D01*
X16520611Y-56070910D01*
X16577933Y-56209298D01*
X16587372Y-56256750D01*
X16577933Y-56304202D01*
X16520611Y-56442589D01*
X16503996Y-56504598D01*
X16486500Y-56637499D01*
X16486500Y-82126001D01*
X14000500Y-82126001D01*
X14000500Y-22480000D01*
X16394551Y-22480000D01*
X16414317Y-22731149D01*
X16473126Y-22976110D01*
X16521330Y-23092484D01*
X16569534Y-23208859D01*
X16701164Y-23423659D01*
X16864776Y-23615224D01*
X17056341Y-23778836D01*
X17271141Y-23910466D01*
X17503889Y-24006873D01*
X17748852Y-24065683D01*
X18000000Y-24085449D01*
X18251148Y-24065683D01*
X18496111Y-24006873D01*
X18728859Y-23910466D01*
X18943659Y-23778836D01*
X19135224Y-23615224D01*
X19298836Y-23423659D01*
X19430466Y-23208859D01*
X19526873Y-22976111D01*
X19585683Y-22731148D01*
X19605449Y-22480000D01*
X158394551Y-22480000D01*
X158414317Y-22731149D01*
X158473126Y-22976110D01*
X158521330Y-23092484D01*
X158569534Y-23208859D01*
X158701164Y-23423659D01*
X158864776Y-23615224D01*
X159056341Y-23778836D01*
X159271141Y-23910466D01*
X159503889Y-24006873D01*
X159748852Y-24065683D01*
X160000000Y-24085449D01*
X160251148Y-24065683D01*
X160496111Y-24006873D01*
X160728859Y-23910466D01*
X160943659Y-23778836D01*
X161135224Y-23615224D01*
X161298836Y-23423659D01*
X161430466Y-23208859D01*
X161526873Y-22976111D01*
X161585683Y-22731148D01*
X161605449Y-22480000D01*
X161585683Y-22228852D01*
X161526873Y-21983889D01*
X161430466Y-21751141D01*
X161298836Y-21536341D01*
X161135224Y-21344776D01*
X160943659Y-21181164D01*
X160728859Y-21049534D01*
X160612485Y-21001330D01*
X160496110Y-20953126D01*
X160251149Y-20894317D01*
X160075588Y-20880500D01*
X160000000Y-20874551D01*
X159999999Y-20874551D01*
X159748850Y-20894317D01*
X159503889Y-20953126D01*
X159271139Y-21049535D01*
X159056342Y-21181163D01*
X158864776Y-21344776D01*
X158701163Y-21536342D01*
X158569535Y-21751139D01*
X158473126Y-21983889D01*
X158414317Y-22228850D01*
X158394551Y-22480000D01*
X19605449Y-22480000D01*
X19585683Y-22228852D01*
X19526873Y-21983889D01*
X19430466Y-21751141D01*
X19298836Y-21536341D01*
X19135224Y-21344776D01*
X18943659Y-21181164D01*
X18728859Y-21049534D01*
X18612485Y-21001330D01*
X18496110Y-20953126D01*
X18251149Y-20894317D01*
X18075588Y-20880500D01*
X18000000Y-20874551D01*
X17999999Y-20874551D01*
X17748850Y-20894317D01*
X17503889Y-20953126D01*
X17271139Y-21049535D01*
X17056342Y-21181163D01*
X16864776Y-21344776D01*
X16701163Y-21536342D01*
X16569535Y-21751139D01*
X16473126Y-21983889D01*
X16414317Y-22228850D01*
X16394551Y-22480000D01*
X14000500Y-22480000D01*
X14000500Y-19531570D01*
X14009939Y-19484117D01*
X14036819Y-19443889D01*
X14963888Y-18516819D01*
X15004116Y-18489939D01*
X15051569Y-18480500D01*
X162948430Y-18480500D01*
X162995883Y-18489939D01*
G37*
G04 #@! TD.AperFunction*
G04 #@! TA.AperFunction,Conductor*
G36*
X40864064Y-27015026D02*
G01*
X40908891Y-27056464D01*
X40928515Y-27114269D01*
X40918178Y-27174433D01*
X40884295Y-27217415D01*
X40884647Y-27217767D01*
X40881674Y-27220739D01*
X40880386Y-27222374D01*
X40878898Y-27223515D01*
X40833513Y-27268900D01*
X40751908Y-27375248D01*
X40700611Y-27499090D01*
X40683996Y-27561098D01*
X40666500Y-27693999D01*
X40666500Y-32262501D01*
X40683996Y-32395401D01*
X40700611Y-32457409D01*
X40751908Y-32581251D01*
X40833513Y-32687599D01*
X40878900Y-32732986D01*
X40951487Y-32788685D01*
X40987212Y-32832217D01*
X41000000Y-32887060D01*
X41000000Y-33152940D01*
X40987212Y-33207783D01*
X40951487Y-33251315D01*
X40878900Y-33307013D01*
X40833513Y-33352400D01*
X40751908Y-33458748D01*
X40700611Y-33582590D01*
X40683996Y-33644598D01*
X40666500Y-33777499D01*
X40666500Y-43242501D01*
X40683996Y-43375401D01*
X40700611Y-43437409D01*
X40751908Y-43561251D01*
X40833513Y-43667599D01*
X40878900Y-43712986D01*
X40951487Y-43768685D01*
X40987212Y-43812217D01*
X41000000Y-43867060D01*
X41000000Y-44132940D01*
X40987212Y-44187783D01*
X40951487Y-44231315D01*
X40878900Y-44287013D01*
X40833513Y-44332400D01*
X40751908Y-44438748D01*
X40700611Y-44562590D01*
X40683996Y-44624598D01*
X40666500Y-44757499D01*
X40666500Y-55492500D01*
X40649887Y-55554500D01*
X40604500Y-55599887D01*
X40542500Y-55616500D01*
X36207309Y-55616500D01*
X36156873Y-55605779D01*
X36115158Y-55575471D01*
X36111253Y-55571134D01*
X35956751Y-55458881D01*
X35782285Y-55381204D01*
X35595489Y-55341500D01*
X35595487Y-55341500D01*
X35404513Y-55341500D01*
X35404511Y-55341500D01*
X35217714Y-55381204D01*
X35043248Y-55458881D01*
X34888748Y-55571133D01*
X34760957Y-55713058D01*
X34665472Y-55878444D01*
X34653817Y-55914317D01*
X34628037Y-55958972D01*
X34586322Y-55989279D01*
X34535886Y-56000000D01*
X17124000Y-56000000D01*
X17062000Y-55983387D01*
X17016613Y-55938000D01*
X17000000Y-55876000D01*
X17000000Y-34624000D01*
X17016613Y-34562000D01*
X17062000Y-34516613D01*
X17124000Y-34500000D01*
X28500000Y-34500000D01*
X28500000Y-27124000D01*
X28516613Y-27062000D01*
X28562000Y-27016613D01*
X28624000Y-27000000D01*
X40804897Y-27000000D01*
X40864064Y-27015026D01*
G37*
G04 #@! TD.AperFunction*
M02*
