%TF.GenerationSoftware,KiCad,Pcbnew,7.0.1*%
%TF.CreationDate,2023-04-06T11:57:59-07:00*%
%TF.ProjectId,rps01,72707330-312e-46b6-9963-61645f706362,0*%
%TF.SameCoordinates,Original*%
%TF.FileFunction,Drillmap*%
%TF.FilePolarity,Positive*%
%FSLAX45Y45*%
G04 Gerber Fmt 4.5, Leading zero omitted, Abs format (unit mm)*
G04 Created by KiCad (PCBNEW 7.0.1) date 2023-04-06 11:57:59*
%MOMM*%
%LPD*%
G01*
G04 APERTURE LIST*
%ADD10C,0.200000*%
%ADD11C,0.040000*%
%ADD12C,0.600000*%
G04 APERTURE END LIST*
D10*
D11*
X1530000Y-5605000D02*
X1570000Y-5645000D01*
X1570000Y-5605000D02*
X1530000Y-5645000D01*
X3180000Y-7355000D02*
X3220000Y-7395000D01*
X3220000Y-7355000D02*
X3180000Y-7395000D01*
X3180000Y-8630000D02*
X3220000Y-8670000D01*
X3220000Y-8630000D02*
X3180000Y-8670000D01*
X3205000Y-6830000D02*
X3245000Y-6870000D01*
X3245000Y-6830000D02*
X3205000Y-6870000D01*
X3205000Y-8080000D02*
X3245000Y-8120000D01*
X3245000Y-8080000D02*
X3205000Y-8120000D01*
X3230000Y-3505000D02*
X3270000Y-3545000D01*
X3270000Y-3505000D02*
X3230000Y-3545000D01*
X3255000Y-3055000D02*
X3295000Y-3095000D01*
X3295000Y-3055000D02*
X3255000Y-3095000D01*
X3280000Y-4205000D02*
X3320000Y-4245000D01*
X3320000Y-4205000D02*
X3280000Y-4245000D01*
X3280000Y-4580000D02*
X3320000Y-4620000D01*
X3320000Y-4580000D02*
X3280000Y-4620000D01*
X3480000Y-4380000D02*
X3520000Y-4420000D01*
X3520000Y-4380000D02*
X3480000Y-4420000D01*
X3480000Y-7105000D02*
X3520000Y-7145000D01*
X3520000Y-7105000D02*
X3480000Y-7145000D01*
X3480000Y-8380000D02*
X3520000Y-8420000D01*
X3520000Y-8380000D02*
X3480000Y-8420000D01*
X3505000Y-3280000D02*
X3545000Y-3320000D01*
X3545000Y-3280000D02*
X3505000Y-3320000D01*
X3505000Y-6005000D02*
X3545000Y-6045000D01*
X3545000Y-6005000D02*
X3505000Y-6045000D01*
X3530000Y-5605000D02*
X3570000Y-5645000D01*
X3570000Y-5605000D02*
X3530000Y-5645000D01*
X3705000Y-4205000D02*
X3745000Y-4245000D01*
X3745000Y-4205000D02*
X3705000Y-4245000D01*
X3705000Y-4580000D02*
X3745000Y-4620000D01*
X3745000Y-4580000D02*
X3705000Y-4620000D01*
X3730000Y-8630000D02*
X3770000Y-8670000D01*
X3770000Y-8630000D02*
X3730000Y-8670000D01*
X3755000Y-3055000D02*
X3795000Y-3095000D01*
X3795000Y-3055000D02*
X3755000Y-3095000D01*
X3755000Y-3555000D02*
X3795000Y-3595000D01*
X3795000Y-3555000D02*
X3755000Y-3595000D01*
X3755000Y-6830000D02*
X3795000Y-6870000D01*
X3795000Y-6830000D02*
X3755000Y-6870000D01*
X3755000Y-7355000D02*
X3795000Y-7395000D01*
X3795000Y-7355000D02*
X3755000Y-7395000D01*
X3805000Y-8055000D02*
X3845000Y-8095000D01*
X3845000Y-8055000D02*
X3805000Y-8095000D01*
X4497220Y-3028000D02*
X4537220Y-3068000D01*
X4537220Y-3028000D02*
X4497220Y-3068000D01*
X4497220Y-4126000D02*
X4537220Y-4166000D01*
X4537220Y-4126000D02*
X4497220Y-4166000D01*
X4497220Y-6838000D02*
X4537220Y-6878000D01*
X4537220Y-6838000D02*
X4497220Y-6878000D01*
X4497220Y-8126000D02*
X4537220Y-8166000D01*
X4537220Y-8126000D02*
X4497220Y-8166000D01*
D12*
X2575000Y-2850000D02*
G75*
G03*
X2575000Y-2850000I-300000J0D01*
G01*
X2575000Y-3950000D02*
G75*
G03*
X2575000Y-3950000I-300000J0D01*
G01*
X2575000Y-7700000D02*
G75*
G03*
X2575000Y-7700000I-300000J0D01*
G01*
X2575000Y-8800000D02*
G75*
G03*
X2575000Y-8800000I-300000J0D01*
G01*
X5084000Y-5588000D02*
G75*
G03*
X5084000Y-5588000I-300000J0D01*
G01*
X6184000Y-5588000D02*
G75*
G03*
X6184000Y-5588000I-300000J0D01*
G01*
D10*
X1642619Y-10165524D02*
X1642619Y-9965524D01*
X1642619Y-9965524D02*
X1690238Y-9965524D01*
X1690238Y-9965524D02*
X1718809Y-9975048D01*
X1718809Y-9975048D02*
X1737857Y-9994095D01*
X1737857Y-9994095D02*
X1747381Y-10013143D01*
X1747381Y-10013143D02*
X1756905Y-10051238D01*
X1756905Y-10051238D02*
X1756905Y-10079810D01*
X1756905Y-10079810D02*
X1747381Y-10117905D01*
X1747381Y-10117905D02*
X1737857Y-10136952D01*
X1737857Y-10136952D02*
X1718809Y-10156000D01*
X1718809Y-10156000D02*
X1690238Y-10165524D01*
X1690238Y-10165524D02*
X1642619Y-10165524D01*
X1842619Y-10165524D02*
X1842619Y-10032190D01*
X1842619Y-10070286D02*
X1852143Y-10051238D01*
X1852143Y-10051238D02*
X1861667Y-10041714D01*
X1861667Y-10041714D02*
X1880714Y-10032190D01*
X1880714Y-10032190D02*
X1899762Y-10032190D01*
X1966428Y-10165524D02*
X1966428Y-10032190D01*
X1966428Y-9965524D02*
X1956905Y-9975048D01*
X1956905Y-9975048D02*
X1966428Y-9984571D01*
X1966428Y-9984571D02*
X1975952Y-9975048D01*
X1975952Y-9975048D02*
X1966428Y-9965524D01*
X1966428Y-9965524D02*
X1966428Y-9984571D01*
X2090238Y-10165524D02*
X2071190Y-10156000D01*
X2071190Y-10156000D02*
X2061667Y-10136952D01*
X2061667Y-10136952D02*
X2061667Y-9965524D01*
X2195000Y-10165524D02*
X2175952Y-10156000D01*
X2175952Y-10156000D02*
X2166429Y-10136952D01*
X2166429Y-10136952D02*
X2166429Y-9965524D01*
X2423571Y-10165524D02*
X2423571Y-9965524D01*
X2423571Y-9965524D02*
X2490238Y-10108381D01*
X2490238Y-10108381D02*
X2556905Y-9965524D01*
X2556905Y-9965524D02*
X2556905Y-10165524D01*
X2737857Y-10165524D02*
X2737857Y-10060762D01*
X2737857Y-10060762D02*
X2728333Y-10041714D01*
X2728333Y-10041714D02*
X2709286Y-10032190D01*
X2709286Y-10032190D02*
X2671190Y-10032190D01*
X2671190Y-10032190D02*
X2652143Y-10041714D01*
X2737857Y-10156000D02*
X2718810Y-10165524D01*
X2718810Y-10165524D02*
X2671190Y-10165524D01*
X2671190Y-10165524D02*
X2652143Y-10156000D01*
X2652143Y-10156000D02*
X2642619Y-10136952D01*
X2642619Y-10136952D02*
X2642619Y-10117905D01*
X2642619Y-10117905D02*
X2652143Y-10098857D01*
X2652143Y-10098857D02*
X2671190Y-10089333D01*
X2671190Y-10089333D02*
X2718810Y-10089333D01*
X2718810Y-10089333D02*
X2737857Y-10079810D01*
X2833095Y-10032190D02*
X2833095Y-10232190D01*
X2833095Y-10041714D02*
X2852143Y-10032190D01*
X2852143Y-10032190D02*
X2890238Y-10032190D01*
X2890238Y-10032190D02*
X2909286Y-10041714D01*
X2909286Y-10041714D02*
X2918809Y-10051238D01*
X2918809Y-10051238D02*
X2928333Y-10070286D01*
X2928333Y-10070286D02*
X2928333Y-10127429D01*
X2928333Y-10127429D02*
X2918809Y-10146476D01*
X2918809Y-10146476D02*
X2909286Y-10156000D01*
X2909286Y-10156000D02*
X2890238Y-10165524D01*
X2890238Y-10165524D02*
X2852143Y-10165524D01*
X2852143Y-10165524D02*
X2833095Y-10156000D01*
X3014048Y-10146476D02*
X3023571Y-10156000D01*
X3023571Y-10156000D02*
X3014048Y-10165524D01*
X3014048Y-10165524D02*
X3004524Y-10156000D01*
X3004524Y-10156000D02*
X3014048Y-10146476D01*
X3014048Y-10146476D02*
X3014048Y-10165524D01*
X3014048Y-10041714D02*
X3023571Y-10051238D01*
X3023571Y-10051238D02*
X3014048Y-10060762D01*
X3014048Y-10060762D02*
X3004524Y-10051238D01*
X3004524Y-10051238D02*
X3014048Y-10041714D01*
X3014048Y-10041714D02*
X3014048Y-10060762D01*
D11*
X1355000Y-10473000D02*
X1395000Y-10513000D01*
X1395000Y-10473000D02*
X1355000Y-10513000D01*
D10*
X1680714Y-10385524D02*
X1699762Y-10385524D01*
X1699762Y-10385524D02*
X1718809Y-10395048D01*
X1718809Y-10395048D02*
X1728333Y-10404571D01*
X1728333Y-10404571D02*
X1737857Y-10423619D01*
X1737857Y-10423619D02*
X1747381Y-10461714D01*
X1747381Y-10461714D02*
X1747381Y-10509333D01*
X1747381Y-10509333D02*
X1737857Y-10547429D01*
X1737857Y-10547429D02*
X1728333Y-10566476D01*
X1728333Y-10566476D02*
X1718809Y-10576000D01*
X1718809Y-10576000D02*
X1699762Y-10585524D01*
X1699762Y-10585524D02*
X1680714Y-10585524D01*
X1680714Y-10585524D02*
X1661667Y-10576000D01*
X1661667Y-10576000D02*
X1652143Y-10566476D01*
X1652143Y-10566476D02*
X1642619Y-10547429D01*
X1642619Y-10547429D02*
X1633095Y-10509333D01*
X1633095Y-10509333D02*
X1633095Y-10461714D01*
X1633095Y-10461714D02*
X1642619Y-10423619D01*
X1642619Y-10423619D02*
X1652143Y-10404571D01*
X1652143Y-10404571D02*
X1661667Y-10395048D01*
X1661667Y-10395048D02*
X1680714Y-10385524D01*
X1833095Y-10566476D02*
X1842619Y-10576000D01*
X1842619Y-10576000D02*
X1833095Y-10585524D01*
X1833095Y-10585524D02*
X1823571Y-10576000D01*
X1823571Y-10576000D02*
X1833095Y-10566476D01*
X1833095Y-10566476D02*
X1833095Y-10585524D01*
X2014048Y-10452190D02*
X2014048Y-10585524D01*
X1966428Y-10376000D02*
X1918809Y-10518857D01*
X1918809Y-10518857D02*
X2042619Y-10518857D01*
X2156905Y-10385524D02*
X2175952Y-10385524D01*
X2175952Y-10385524D02*
X2195000Y-10395048D01*
X2195000Y-10395048D02*
X2204524Y-10404571D01*
X2204524Y-10404571D02*
X2214048Y-10423619D01*
X2214048Y-10423619D02*
X2223571Y-10461714D01*
X2223571Y-10461714D02*
X2223571Y-10509333D01*
X2223571Y-10509333D02*
X2214048Y-10547429D01*
X2214048Y-10547429D02*
X2204524Y-10566476D01*
X2204524Y-10566476D02*
X2195000Y-10576000D01*
X2195000Y-10576000D02*
X2175952Y-10585524D01*
X2175952Y-10585524D02*
X2156905Y-10585524D01*
X2156905Y-10585524D02*
X2137857Y-10576000D01*
X2137857Y-10576000D02*
X2128333Y-10566476D01*
X2128333Y-10566476D02*
X2118810Y-10547429D01*
X2118810Y-10547429D02*
X2109286Y-10509333D01*
X2109286Y-10509333D02*
X2109286Y-10461714D01*
X2109286Y-10461714D02*
X2118810Y-10423619D01*
X2118810Y-10423619D02*
X2128333Y-10404571D01*
X2128333Y-10404571D02*
X2137857Y-10395048D01*
X2137857Y-10395048D02*
X2156905Y-10385524D01*
X2347381Y-10385524D02*
X2366429Y-10385524D01*
X2366429Y-10385524D02*
X2385476Y-10395048D01*
X2385476Y-10395048D02*
X2395000Y-10404571D01*
X2395000Y-10404571D02*
X2404524Y-10423619D01*
X2404524Y-10423619D02*
X2414048Y-10461714D01*
X2414048Y-10461714D02*
X2414048Y-10509333D01*
X2414048Y-10509333D02*
X2404524Y-10547429D01*
X2404524Y-10547429D02*
X2395000Y-10566476D01*
X2395000Y-10566476D02*
X2385476Y-10576000D01*
X2385476Y-10576000D02*
X2366429Y-10585524D01*
X2366429Y-10585524D02*
X2347381Y-10585524D01*
X2347381Y-10585524D02*
X2328333Y-10576000D01*
X2328333Y-10576000D02*
X2318810Y-10566476D01*
X2318810Y-10566476D02*
X2309286Y-10547429D01*
X2309286Y-10547429D02*
X2299762Y-10509333D01*
X2299762Y-10509333D02*
X2299762Y-10461714D01*
X2299762Y-10461714D02*
X2309286Y-10423619D01*
X2309286Y-10423619D02*
X2318810Y-10404571D01*
X2318810Y-10404571D02*
X2328333Y-10395048D01*
X2328333Y-10395048D02*
X2347381Y-10385524D01*
X2499762Y-10585524D02*
X2499762Y-10452190D01*
X2499762Y-10471238D02*
X2509286Y-10461714D01*
X2509286Y-10461714D02*
X2528333Y-10452190D01*
X2528333Y-10452190D02*
X2556905Y-10452190D01*
X2556905Y-10452190D02*
X2575952Y-10461714D01*
X2575952Y-10461714D02*
X2585476Y-10480762D01*
X2585476Y-10480762D02*
X2585476Y-10585524D01*
X2585476Y-10480762D02*
X2595000Y-10461714D01*
X2595000Y-10461714D02*
X2614048Y-10452190D01*
X2614048Y-10452190D02*
X2642619Y-10452190D01*
X2642619Y-10452190D02*
X2661667Y-10461714D01*
X2661667Y-10461714D02*
X2671191Y-10480762D01*
X2671191Y-10480762D02*
X2671191Y-10585524D01*
X2766429Y-10585524D02*
X2766429Y-10452190D01*
X2766429Y-10471238D02*
X2775952Y-10461714D01*
X2775952Y-10461714D02*
X2795000Y-10452190D01*
X2795000Y-10452190D02*
X2823571Y-10452190D01*
X2823571Y-10452190D02*
X2842619Y-10461714D01*
X2842619Y-10461714D02*
X2852143Y-10480762D01*
X2852143Y-10480762D02*
X2852143Y-10585524D01*
X2852143Y-10480762D02*
X2861667Y-10461714D01*
X2861667Y-10461714D02*
X2880714Y-10452190D01*
X2880714Y-10452190D02*
X2909286Y-10452190D01*
X2909286Y-10452190D02*
X2928333Y-10461714D01*
X2928333Y-10461714D02*
X2937857Y-10480762D01*
X2937857Y-10480762D02*
X2937857Y-10585524D01*
X3328333Y-10376000D02*
X3156905Y-10633143D01*
X3585476Y-10385524D02*
X3604524Y-10385524D01*
X3604524Y-10385524D02*
X3623572Y-10395048D01*
X3623572Y-10395048D02*
X3633095Y-10404571D01*
X3633095Y-10404571D02*
X3642619Y-10423619D01*
X3642619Y-10423619D02*
X3652143Y-10461714D01*
X3652143Y-10461714D02*
X3652143Y-10509333D01*
X3652143Y-10509333D02*
X3642619Y-10547429D01*
X3642619Y-10547429D02*
X3633095Y-10566476D01*
X3633095Y-10566476D02*
X3623572Y-10576000D01*
X3623572Y-10576000D02*
X3604524Y-10585524D01*
X3604524Y-10585524D02*
X3585476Y-10585524D01*
X3585476Y-10585524D02*
X3566429Y-10576000D01*
X3566429Y-10576000D02*
X3556905Y-10566476D01*
X3556905Y-10566476D02*
X3547381Y-10547429D01*
X3547381Y-10547429D02*
X3537857Y-10509333D01*
X3537857Y-10509333D02*
X3537857Y-10461714D01*
X3537857Y-10461714D02*
X3547381Y-10423619D01*
X3547381Y-10423619D02*
X3556905Y-10404571D01*
X3556905Y-10404571D02*
X3566429Y-10395048D01*
X3566429Y-10395048D02*
X3585476Y-10385524D01*
X3737857Y-10566476D02*
X3747381Y-10576000D01*
X3747381Y-10576000D02*
X3737857Y-10585524D01*
X3737857Y-10585524D02*
X3728333Y-10576000D01*
X3728333Y-10576000D02*
X3737857Y-10566476D01*
X3737857Y-10566476D02*
X3737857Y-10585524D01*
X3871191Y-10385524D02*
X3890238Y-10385524D01*
X3890238Y-10385524D02*
X3909286Y-10395048D01*
X3909286Y-10395048D02*
X3918810Y-10404571D01*
X3918810Y-10404571D02*
X3928333Y-10423619D01*
X3928333Y-10423619D02*
X3937857Y-10461714D01*
X3937857Y-10461714D02*
X3937857Y-10509333D01*
X3937857Y-10509333D02*
X3928333Y-10547429D01*
X3928333Y-10547429D02*
X3918810Y-10566476D01*
X3918810Y-10566476D02*
X3909286Y-10576000D01*
X3909286Y-10576000D02*
X3890238Y-10585524D01*
X3890238Y-10585524D02*
X3871191Y-10585524D01*
X3871191Y-10585524D02*
X3852143Y-10576000D01*
X3852143Y-10576000D02*
X3842619Y-10566476D01*
X3842619Y-10566476D02*
X3833095Y-10547429D01*
X3833095Y-10547429D02*
X3823572Y-10509333D01*
X3823572Y-10509333D02*
X3823572Y-10461714D01*
X3823572Y-10461714D02*
X3833095Y-10423619D01*
X3833095Y-10423619D02*
X3842619Y-10404571D01*
X3842619Y-10404571D02*
X3852143Y-10395048D01*
X3852143Y-10395048D02*
X3871191Y-10385524D01*
X4128333Y-10585524D02*
X4014048Y-10585524D01*
X4071191Y-10585524D02*
X4071191Y-10385524D01*
X4071191Y-10385524D02*
X4052143Y-10414095D01*
X4052143Y-10414095D02*
X4033095Y-10433143D01*
X4033095Y-10433143D02*
X4014048Y-10442667D01*
X4309286Y-10385524D02*
X4214048Y-10385524D01*
X4214048Y-10385524D02*
X4204524Y-10480762D01*
X4204524Y-10480762D02*
X4214048Y-10471238D01*
X4214048Y-10471238D02*
X4233095Y-10461714D01*
X4233095Y-10461714D02*
X4280715Y-10461714D01*
X4280715Y-10461714D02*
X4299762Y-10471238D01*
X4299762Y-10471238D02*
X4309286Y-10480762D01*
X4309286Y-10480762D02*
X4318810Y-10499810D01*
X4318810Y-10499810D02*
X4318810Y-10547429D01*
X4318810Y-10547429D02*
X4309286Y-10566476D01*
X4309286Y-10566476D02*
X4299762Y-10576000D01*
X4299762Y-10576000D02*
X4280715Y-10585524D01*
X4280715Y-10585524D02*
X4233095Y-10585524D01*
X4233095Y-10585524D02*
X4214048Y-10576000D01*
X4214048Y-10576000D02*
X4204524Y-10566476D01*
X4385476Y-10385524D02*
X4518810Y-10385524D01*
X4518810Y-10385524D02*
X4433095Y-10585524D01*
X4585476Y-10385524D02*
X4585476Y-10423619D01*
X4661667Y-10385524D02*
X4661667Y-10423619D01*
X4956905Y-10661714D02*
X4947381Y-10652190D01*
X4947381Y-10652190D02*
X4928334Y-10623619D01*
X4928334Y-10623619D02*
X4918810Y-10604571D01*
X4918810Y-10604571D02*
X4909286Y-10576000D01*
X4909286Y-10576000D02*
X4899762Y-10528381D01*
X4899762Y-10528381D02*
X4899762Y-10490286D01*
X4899762Y-10490286D02*
X4909286Y-10442667D01*
X4909286Y-10442667D02*
X4918810Y-10414095D01*
X4918810Y-10414095D02*
X4928334Y-10395048D01*
X4928334Y-10395048D02*
X4947381Y-10366476D01*
X4947381Y-10366476D02*
X4956905Y-10356952D01*
X5023572Y-10404571D02*
X5033096Y-10395048D01*
X5033096Y-10395048D02*
X5052143Y-10385524D01*
X5052143Y-10385524D02*
X5099762Y-10385524D01*
X5099762Y-10385524D02*
X5118810Y-10395048D01*
X5118810Y-10395048D02*
X5128334Y-10404571D01*
X5128334Y-10404571D02*
X5137857Y-10423619D01*
X5137857Y-10423619D02*
X5137857Y-10442667D01*
X5137857Y-10442667D02*
X5128334Y-10471238D01*
X5128334Y-10471238D02*
X5014048Y-10585524D01*
X5014048Y-10585524D02*
X5137857Y-10585524D01*
X5204524Y-10385524D02*
X5337857Y-10385524D01*
X5337857Y-10385524D02*
X5252143Y-10585524D01*
X5566429Y-10585524D02*
X5566429Y-10385524D01*
X5652143Y-10585524D02*
X5652143Y-10480762D01*
X5652143Y-10480762D02*
X5642619Y-10461714D01*
X5642619Y-10461714D02*
X5623572Y-10452190D01*
X5623572Y-10452190D02*
X5595000Y-10452190D01*
X5595000Y-10452190D02*
X5575953Y-10461714D01*
X5575953Y-10461714D02*
X5566429Y-10471238D01*
X5775953Y-10585524D02*
X5756905Y-10576000D01*
X5756905Y-10576000D02*
X5747381Y-10566476D01*
X5747381Y-10566476D02*
X5737857Y-10547429D01*
X5737857Y-10547429D02*
X5737857Y-10490286D01*
X5737857Y-10490286D02*
X5747381Y-10471238D01*
X5747381Y-10471238D02*
X5756905Y-10461714D01*
X5756905Y-10461714D02*
X5775953Y-10452190D01*
X5775953Y-10452190D02*
X5804524Y-10452190D01*
X5804524Y-10452190D02*
X5823572Y-10461714D01*
X5823572Y-10461714D02*
X5833096Y-10471238D01*
X5833096Y-10471238D02*
X5842619Y-10490286D01*
X5842619Y-10490286D02*
X5842619Y-10547429D01*
X5842619Y-10547429D02*
X5833096Y-10566476D01*
X5833096Y-10566476D02*
X5823572Y-10576000D01*
X5823572Y-10576000D02*
X5804524Y-10585524D01*
X5804524Y-10585524D02*
X5775953Y-10585524D01*
X5956905Y-10585524D02*
X5937857Y-10576000D01*
X5937857Y-10576000D02*
X5928334Y-10556952D01*
X5928334Y-10556952D02*
X5928334Y-10385524D01*
X6109286Y-10576000D02*
X6090238Y-10585524D01*
X6090238Y-10585524D02*
X6052143Y-10585524D01*
X6052143Y-10585524D02*
X6033096Y-10576000D01*
X6033096Y-10576000D02*
X6023572Y-10556952D01*
X6023572Y-10556952D02*
X6023572Y-10480762D01*
X6023572Y-10480762D02*
X6033096Y-10461714D01*
X6033096Y-10461714D02*
X6052143Y-10452190D01*
X6052143Y-10452190D02*
X6090238Y-10452190D01*
X6090238Y-10452190D02*
X6109286Y-10461714D01*
X6109286Y-10461714D02*
X6118810Y-10480762D01*
X6118810Y-10480762D02*
X6118810Y-10499810D01*
X6118810Y-10499810D02*
X6023572Y-10518857D01*
X6195000Y-10576000D02*
X6214048Y-10585524D01*
X6214048Y-10585524D02*
X6252143Y-10585524D01*
X6252143Y-10585524D02*
X6271191Y-10576000D01*
X6271191Y-10576000D02*
X6280715Y-10556952D01*
X6280715Y-10556952D02*
X6280715Y-10547429D01*
X6280715Y-10547429D02*
X6271191Y-10528381D01*
X6271191Y-10528381D02*
X6252143Y-10518857D01*
X6252143Y-10518857D02*
X6223572Y-10518857D01*
X6223572Y-10518857D02*
X6204524Y-10509333D01*
X6204524Y-10509333D02*
X6195000Y-10490286D01*
X6195000Y-10490286D02*
X6195000Y-10480762D01*
X6195000Y-10480762D02*
X6204524Y-10461714D01*
X6204524Y-10461714D02*
X6223572Y-10452190D01*
X6223572Y-10452190D02*
X6252143Y-10452190D01*
X6252143Y-10452190D02*
X6271191Y-10461714D01*
X6347381Y-10661714D02*
X6356905Y-10652190D01*
X6356905Y-10652190D02*
X6375953Y-10623619D01*
X6375953Y-10623619D02*
X6385477Y-10604571D01*
X6385477Y-10604571D02*
X6395000Y-10576000D01*
X6395000Y-10576000D02*
X6404524Y-10528381D01*
X6404524Y-10528381D02*
X6404524Y-10490286D01*
X6404524Y-10490286D02*
X6395000Y-10442667D01*
X6395000Y-10442667D02*
X6385477Y-10414095D01*
X6385477Y-10414095D02*
X6375953Y-10395048D01*
X6375953Y-10395048D02*
X6356905Y-10366476D01*
X6356905Y-10366476D02*
X6347381Y-10356952D01*
X1395000Y-10757000D02*
G75*
G03*
X1395000Y-10757000I-100000J0D01*
G01*
X1728333Y-10649524D02*
X1690238Y-10649524D01*
X1690238Y-10649524D02*
X1671190Y-10659048D01*
X1671190Y-10659048D02*
X1661667Y-10668571D01*
X1661667Y-10668571D02*
X1642619Y-10697143D01*
X1642619Y-10697143D02*
X1633095Y-10735238D01*
X1633095Y-10735238D02*
X1633095Y-10811429D01*
X1633095Y-10811429D02*
X1642619Y-10830476D01*
X1642619Y-10830476D02*
X1652143Y-10840000D01*
X1652143Y-10840000D02*
X1671190Y-10849524D01*
X1671190Y-10849524D02*
X1709286Y-10849524D01*
X1709286Y-10849524D02*
X1728333Y-10840000D01*
X1728333Y-10840000D02*
X1737857Y-10830476D01*
X1737857Y-10830476D02*
X1747381Y-10811429D01*
X1747381Y-10811429D02*
X1747381Y-10763810D01*
X1747381Y-10763810D02*
X1737857Y-10744762D01*
X1737857Y-10744762D02*
X1728333Y-10735238D01*
X1728333Y-10735238D02*
X1709286Y-10725714D01*
X1709286Y-10725714D02*
X1671190Y-10725714D01*
X1671190Y-10725714D02*
X1652143Y-10735238D01*
X1652143Y-10735238D02*
X1642619Y-10744762D01*
X1642619Y-10744762D02*
X1633095Y-10763810D01*
X1833095Y-10830476D02*
X1842619Y-10840000D01*
X1842619Y-10840000D02*
X1833095Y-10849524D01*
X1833095Y-10849524D02*
X1823571Y-10840000D01*
X1823571Y-10840000D02*
X1833095Y-10830476D01*
X1833095Y-10830476D02*
X1833095Y-10849524D01*
X1966428Y-10649524D02*
X1985476Y-10649524D01*
X1985476Y-10649524D02*
X2004524Y-10659048D01*
X2004524Y-10659048D02*
X2014048Y-10668571D01*
X2014048Y-10668571D02*
X2023571Y-10687619D01*
X2023571Y-10687619D02*
X2033095Y-10725714D01*
X2033095Y-10725714D02*
X2033095Y-10773333D01*
X2033095Y-10773333D02*
X2023571Y-10811429D01*
X2023571Y-10811429D02*
X2014048Y-10830476D01*
X2014048Y-10830476D02*
X2004524Y-10840000D01*
X2004524Y-10840000D02*
X1985476Y-10849524D01*
X1985476Y-10849524D02*
X1966428Y-10849524D01*
X1966428Y-10849524D02*
X1947381Y-10840000D01*
X1947381Y-10840000D02*
X1937857Y-10830476D01*
X1937857Y-10830476D02*
X1928333Y-10811429D01*
X1928333Y-10811429D02*
X1918809Y-10773333D01*
X1918809Y-10773333D02*
X1918809Y-10725714D01*
X1918809Y-10725714D02*
X1928333Y-10687619D01*
X1928333Y-10687619D02*
X1937857Y-10668571D01*
X1937857Y-10668571D02*
X1947381Y-10659048D01*
X1947381Y-10659048D02*
X1966428Y-10649524D01*
X2156905Y-10649524D02*
X2175952Y-10649524D01*
X2175952Y-10649524D02*
X2195000Y-10659048D01*
X2195000Y-10659048D02*
X2204524Y-10668571D01*
X2204524Y-10668571D02*
X2214048Y-10687619D01*
X2214048Y-10687619D02*
X2223571Y-10725714D01*
X2223571Y-10725714D02*
X2223571Y-10773333D01*
X2223571Y-10773333D02*
X2214048Y-10811429D01*
X2214048Y-10811429D02*
X2204524Y-10830476D01*
X2204524Y-10830476D02*
X2195000Y-10840000D01*
X2195000Y-10840000D02*
X2175952Y-10849524D01*
X2175952Y-10849524D02*
X2156905Y-10849524D01*
X2156905Y-10849524D02*
X2137857Y-10840000D01*
X2137857Y-10840000D02*
X2128333Y-10830476D01*
X2128333Y-10830476D02*
X2118810Y-10811429D01*
X2118810Y-10811429D02*
X2109286Y-10773333D01*
X2109286Y-10773333D02*
X2109286Y-10725714D01*
X2109286Y-10725714D02*
X2118810Y-10687619D01*
X2118810Y-10687619D02*
X2128333Y-10668571D01*
X2128333Y-10668571D02*
X2137857Y-10659048D01*
X2137857Y-10659048D02*
X2156905Y-10649524D01*
X2347381Y-10649524D02*
X2366429Y-10649524D01*
X2366429Y-10649524D02*
X2385476Y-10659048D01*
X2385476Y-10659048D02*
X2395000Y-10668571D01*
X2395000Y-10668571D02*
X2404524Y-10687619D01*
X2404524Y-10687619D02*
X2414048Y-10725714D01*
X2414048Y-10725714D02*
X2414048Y-10773333D01*
X2414048Y-10773333D02*
X2404524Y-10811429D01*
X2404524Y-10811429D02*
X2395000Y-10830476D01*
X2395000Y-10830476D02*
X2385476Y-10840000D01*
X2385476Y-10840000D02*
X2366429Y-10849524D01*
X2366429Y-10849524D02*
X2347381Y-10849524D01*
X2347381Y-10849524D02*
X2328333Y-10840000D01*
X2328333Y-10840000D02*
X2318810Y-10830476D01*
X2318810Y-10830476D02*
X2309286Y-10811429D01*
X2309286Y-10811429D02*
X2299762Y-10773333D01*
X2299762Y-10773333D02*
X2299762Y-10725714D01*
X2299762Y-10725714D02*
X2309286Y-10687619D01*
X2309286Y-10687619D02*
X2318810Y-10668571D01*
X2318810Y-10668571D02*
X2328333Y-10659048D01*
X2328333Y-10659048D02*
X2347381Y-10649524D01*
X2499762Y-10849524D02*
X2499762Y-10716190D01*
X2499762Y-10735238D02*
X2509286Y-10725714D01*
X2509286Y-10725714D02*
X2528333Y-10716190D01*
X2528333Y-10716190D02*
X2556905Y-10716190D01*
X2556905Y-10716190D02*
X2575952Y-10725714D01*
X2575952Y-10725714D02*
X2585476Y-10744762D01*
X2585476Y-10744762D02*
X2585476Y-10849524D01*
X2585476Y-10744762D02*
X2595000Y-10725714D01*
X2595000Y-10725714D02*
X2614048Y-10716190D01*
X2614048Y-10716190D02*
X2642619Y-10716190D01*
X2642619Y-10716190D02*
X2661667Y-10725714D01*
X2661667Y-10725714D02*
X2671191Y-10744762D01*
X2671191Y-10744762D02*
X2671191Y-10849524D01*
X2766429Y-10849524D02*
X2766429Y-10716190D01*
X2766429Y-10735238D02*
X2775952Y-10725714D01*
X2775952Y-10725714D02*
X2795000Y-10716190D01*
X2795000Y-10716190D02*
X2823571Y-10716190D01*
X2823571Y-10716190D02*
X2842619Y-10725714D01*
X2842619Y-10725714D02*
X2852143Y-10744762D01*
X2852143Y-10744762D02*
X2852143Y-10849524D01*
X2852143Y-10744762D02*
X2861667Y-10725714D01*
X2861667Y-10725714D02*
X2880714Y-10716190D01*
X2880714Y-10716190D02*
X2909286Y-10716190D01*
X2909286Y-10716190D02*
X2928333Y-10725714D01*
X2928333Y-10725714D02*
X2937857Y-10744762D01*
X2937857Y-10744762D02*
X2937857Y-10849524D01*
X3328333Y-10640000D02*
X3156905Y-10897143D01*
X3585476Y-10649524D02*
X3604524Y-10649524D01*
X3604524Y-10649524D02*
X3623572Y-10659048D01*
X3623572Y-10659048D02*
X3633095Y-10668571D01*
X3633095Y-10668571D02*
X3642619Y-10687619D01*
X3642619Y-10687619D02*
X3652143Y-10725714D01*
X3652143Y-10725714D02*
X3652143Y-10773333D01*
X3652143Y-10773333D02*
X3642619Y-10811429D01*
X3642619Y-10811429D02*
X3633095Y-10830476D01*
X3633095Y-10830476D02*
X3623572Y-10840000D01*
X3623572Y-10840000D02*
X3604524Y-10849524D01*
X3604524Y-10849524D02*
X3585476Y-10849524D01*
X3585476Y-10849524D02*
X3566429Y-10840000D01*
X3566429Y-10840000D02*
X3556905Y-10830476D01*
X3556905Y-10830476D02*
X3547381Y-10811429D01*
X3547381Y-10811429D02*
X3537857Y-10773333D01*
X3537857Y-10773333D02*
X3537857Y-10725714D01*
X3537857Y-10725714D02*
X3547381Y-10687619D01*
X3547381Y-10687619D02*
X3556905Y-10668571D01*
X3556905Y-10668571D02*
X3566429Y-10659048D01*
X3566429Y-10659048D02*
X3585476Y-10649524D01*
X3737857Y-10830476D02*
X3747381Y-10840000D01*
X3747381Y-10840000D02*
X3737857Y-10849524D01*
X3737857Y-10849524D02*
X3728333Y-10840000D01*
X3728333Y-10840000D02*
X3737857Y-10830476D01*
X3737857Y-10830476D02*
X3737857Y-10849524D01*
X3823572Y-10668571D02*
X3833095Y-10659048D01*
X3833095Y-10659048D02*
X3852143Y-10649524D01*
X3852143Y-10649524D02*
X3899762Y-10649524D01*
X3899762Y-10649524D02*
X3918810Y-10659048D01*
X3918810Y-10659048D02*
X3928333Y-10668571D01*
X3928333Y-10668571D02*
X3937857Y-10687619D01*
X3937857Y-10687619D02*
X3937857Y-10706667D01*
X3937857Y-10706667D02*
X3928333Y-10735238D01*
X3928333Y-10735238D02*
X3814048Y-10849524D01*
X3814048Y-10849524D02*
X3937857Y-10849524D01*
X4004524Y-10649524D02*
X4128333Y-10649524D01*
X4128333Y-10649524D02*
X4061667Y-10725714D01*
X4061667Y-10725714D02*
X4090238Y-10725714D01*
X4090238Y-10725714D02*
X4109286Y-10735238D01*
X4109286Y-10735238D02*
X4118810Y-10744762D01*
X4118810Y-10744762D02*
X4128333Y-10763810D01*
X4128333Y-10763810D02*
X4128333Y-10811429D01*
X4128333Y-10811429D02*
X4118810Y-10830476D01*
X4118810Y-10830476D02*
X4109286Y-10840000D01*
X4109286Y-10840000D02*
X4090238Y-10849524D01*
X4090238Y-10849524D02*
X4033095Y-10849524D01*
X4033095Y-10849524D02*
X4014048Y-10840000D01*
X4014048Y-10840000D02*
X4004524Y-10830476D01*
X4299762Y-10649524D02*
X4261667Y-10649524D01*
X4261667Y-10649524D02*
X4242619Y-10659048D01*
X4242619Y-10659048D02*
X4233095Y-10668571D01*
X4233095Y-10668571D02*
X4214048Y-10697143D01*
X4214048Y-10697143D02*
X4204524Y-10735238D01*
X4204524Y-10735238D02*
X4204524Y-10811429D01*
X4204524Y-10811429D02*
X4214048Y-10830476D01*
X4214048Y-10830476D02*
X4223572Y-10840000D01*
X4223572Y-10840000D02*
X4242619Y-10849524D01*
X4242619Y-10849524D02*
X4280715Y-10849524D01*
X4280715Y-10849524D02*
X4299762Y-10840000D01*
X4299762Y-10840000D02*
X4309286Y-10830476D01*
X4309286Y-10830476D02*
X4318810Y-10811429D01*
X4318810Y-10811429D02*
X4318810Y-10763810D01*
X4318810Y-10763810D02*
X4309286Y-10744762D01*
X4309286Y-10744762D02*
X4299762Y-10735238D01*
X4299762Y-10735238D02*
X4280715Y-10725714D01*
X4280715Y-10725714D02*
X4242619Y-10725714D01*
X4242619Y-10725714D02*
X4223572Y-10735238D01*
X4223572Y-10735238D02*
X4214048Y-10744762D01*
X4214048Y-10744762D02*
X4204524Y-10763810D01*
X4395000Y-10668571D02*
X4404524Y-10659048D01*
X4404524Y-10659048D02*
X4423572Y-10649524D01*
X4423572Y-10649524D02*
X4471191Y-10649524D01*
X4471191Y-10649524D02*
X4490238Y-10659048D01*
X4490238Y-10659048D02*
X4499762Y-10668571D01*
X4499762Y-10668571D02*
X4509286Y-10687619D01*
X4509286Y-10687619D02*
X4509286Y-10706667D01*
X4509286Y-10706667D02*
X4499762Y-10735238D01*
X4499762Y-10735238D02*
X4385476Y-10849524D01*
X4385476Y-10849524D02*
X4509286Y-10849524D01*
X4585476Y-10649524D02*
X4585476Y-10687619D01*
X4661667Y-10649524D02*
X4661667Y-10687619D01*
X4956905Y-10925714D02*
X4947381Y-10916190D01*
X4947381Y-10916190D02*
X4928334Y-10887619D01*
X4928334Y-10887619D02*
X4918810Y-10868571D01*
X4918810Y-10868571D02*
X4909286Y-10840000D01*
X4909286Y-10840000D02*
X4899762Y-10792381D01*
X4899762Y-10792381D02*
X4899762Y-10754286D01*
X4899762Y-10754286D02*
X4909286Y-10706667D01*
X4909286Y-10706667D02*
X4918810Y-10678095D01*
X4918810Y-10678095D02*
X4928334Y-10659048D01*
X4928334Y-10659048D02*
X4947381Y-10630476D01*
X4947381Y-10630476D02*
X4956905Y-10620952D01*
X5118810Y-10649524D02*
X5080715Y-10649524D01*
X5080715Y-10649524D02*
X5061667Y-10659048D01*
X5061667Y-10659048D02*
X5052143Y-10668571D01*
X5052143Y-10668571D02*
X5033096Y-10697143D01*
X5033096Y-10697143D02*
X5023572Y-10735238D01*
X5023572Y-10735238D02*
X5023572Y-10811429D01*
X5023572Y-10811429D02*
X5033096Y-10830476D01*
X5033096Y-10830476D02*
X5042619Y-10840000D01*
X5042619Y-10840000D02*
X5061667Y-10849524D01*
X5061667Y-10849524D02*
X5099762Y-10849524D01*
X5099762Y-10849524D02*
X5118810Y-10840000D01*
X5118810Y-10840000D02*
X5128334Y-10830476D01*
X5128334Y-10830476D02*
X5137857Y-10811429D01*
X5137857Y-10811429D02*
X5137857Y-10763810D01*
X5137857Y-10763810D02*
X5128334Y-10744762D01*
X5128334Y-10744762D02*
X5118810Y-10735238D01*
X5118810Y-10735238D02*
X5099762Y-10725714D01*
X5099762Y-10725714D02*
X5061667Y-10725714D01*
X5061667Y-10725714D02*
X5042619Y-10735238D01*
X5042619Y-10735238D02*
X5033096Y-10744762D01*
X5033096Y-10744762D02*
X5023572Y-10763810D01*
X5375953Y-10849524D02*
X5375953Y-10649524D01*
X5461667Y-10849524D02*
X5461667Y-10744762D01*
X5461667Y-10744762D02*
X5452143Y-10725714D01*
X5452143Y-10725714D02*
X5433096Y-10716190D01*
X5433096Y-10716190D02*
X5404524Y-10716190D01*
X5404524Y-10716190D02*
X5385477Y-10725714D01*
X5385477Y-10725714D02*
X5375953Y-10735238D01*
X5585477Y-10849524D02*
X5566429Y-10840000D01*
X5566429Y-10840000D02*
X5556905Y-10830476D01*
X5556905Y-10830476D02*
X5547381Y-10811429D01*
X5547381Y-10811429D02*
X5547381Y-10754286D01*
X5547381Y-10754286D02*
X5556905Y-10735238D01*
X5556905Y-10735238D02*
X5566429Y-10725714D01*
X5566429Y-10725714D02*
X5585477Y-10716190D01*
X5585477Y-10716190D02*
X5614048Y-10716190D01*
X5614048Y-10716190D02*
X5633096Y-10725714D01*
X5633096Y-10725714D02*
X5642619Y-10735238D01*
X5642619Y-10735238D02*
X5652143Y-10754286D01*
X5652143Y-10754286D02*
X5652143Y-10811429D01*
X5652143Y-10811429D02*
X5642619Y-10830476D01*
X5642619Y-10830476D02*
X5633096Y-10840000D01*
X5633096Y-10840000D02*
X5614048Y-10849524D01*
X5614048Y-10849524D02*
X5585477Y-10849524D01*
X5766429Y-10849524D02*
X5747381Y-10840000D01*
X5747381Y-10840000D02*
X5737857Y-10820952D01*
X5737857Y-10820952D02*
X5737857Y-10649524D01*
X5918810Y-10840000D02*
X5899762Y-10849524D01*
X5899762Y-10849524D02*
X5861667Y-10849524D01*
X5861667Y-10849524D02*
X5842619Y-10840000D01*
X5842619Y-10840000D02*
X5833096Y-10820952D01*
X5833096Y-10820952D02*
X5833096Y-10744762D01*
X5833096Y-10744762D02*
X5842619Y-10725714D01*
X5842619Y-10725714D02*
X5861667Y-10716190D01*
X5861667Y-10716190D02*
X5899762Y-10716190D01*
X5899762Y-10716190D02*
X5918810Y-10725714D01*
X5918810Y-10725714D02*
X5928334Y-10744762D01*
X5928334Y-10744762D02*
X5928334Y-10763810D01*
X5928334Y-10763810D02*
X5833096Y-10782857D01*
X6004524Y-10840000D02*
X6023572Y-10849524D01*
X6023572Y-10849524D02*
X6061667Y-10849524D01*
X6061667Y-10849524D02*
X6080715Y-10840000D01*
X6080715Y-10840000D02*
X6090238Y-10820952D01*
X6090238Y-10820952D02*
X6090238Y-10811429D01*
X6090238Y-10811429D02*
X6080715Y-10792381D01*
X6080715Y-10792381D02*
X6061667Y-10782857D01*
X6061667Y-10782857D02*
X6033096Y-10782857D01*
X6033096Y-10782857D02*
X6014048Y-10773333D01*
X6014048Y-10773333D02*
X6004524Y-10754286D01*
X6004524Y-10754286D02*
X6004524Y-10744762D01*
X6004524Y-10744762D02*
X6014048Y-10725714D01*
X6014048Y-10725714D02*
X6033096Y-10716190D01*
X6033096Y-10716190D02*
X6061667Y-10716190D01*
X6061667Y-10716190D02*
X6080715Y-10725714D01*
X6156905Y-10925714D02*
X6166429Y-10916190D01*
X6166429Y-10916190D02*
X6185477Y-10887619D01*
X6185477Y-10887619D02*
X6195000Y-10868571D01*
X6195000Y-10868571D02*
X6204524Y-10840000D01*
X6204524Y-10840000D02*
X6214048Y-10792381D01*
X6214048Y-10792381D02*
X6214048Y-10754286D01*
X6214048Y-10754286D02*
X6204524Y-10706667D01*
X6204524Y-10706667D02*
X6195000Y-10678095D01*
X6195000Y-10678095D02*
X6185477Y-10659048D01*
X6185477Y-10659048D02*
X6166429Y-10630476D01*
X6166429Y-10630476D02*
X6156905Y-10620952D01*
M02*
