M48
; DRILL file {KiCad 7.0.1} date Thu Apr  6 11:57:58 2023
; FORMAT={-:-/ absolute / metric / decimal}
; #@! TF.CreationDate,2023-04-06T11:57:58-07:00
; #@! TF.GenerationSoftware,Kicad,Pcbnew,7.0.1
; #@! TF.FileFunction,Plated,1,2,PTH
FMAT,2
METRIC
; #@! TA.AperFunction,Plated,PTH,ViaDrill
T1C0.400
; #@! TA.AperFunction,Plated,PTH,ComponentDrill
T2C6.000
%
G90
G05
T1
X15.5Y-56.25
X32.0Y-73.75
X32.0Y-86.5
X32.25Y-68.5
X32.25Y-81.0
X32.5Y-35.25
X32.75Y-30.75
X33.0Y-42.25
X33.0Y-46.0
X35.0Y-44.0
X35.0Y-71.25
X35.0Y-84.0
X35.25Y-33.0
X35.25Y-60.25
X35.5Y-56.25
X37.25Y-42.25
X37.25Y-46.0
X37.5Y-86.5
X37.75Y-30.75
X37.75Y-35.75
X37.75Y-68.5
X37.75Y-73.75
X38.25Y-80.75
X45.172Y-30.48
X45.172Y-41.46
X45.172Y-68.58
X45.172Y-81.46
T2
X22.75Y-28.5
X22.75Y-39.5
X22.75Y-77.0
X22.75Y-88.0
X47.84Y-55.88
X58.84Y-55.88
T0
M30
